<?xml version="1.0" encoding="utf-8"?>
<!-- Generator: Adobe Illustrator 19.0.0, SVG Export Plug-In . SVG Version: 6.00 Build 0)  -->
<svg version="1.1" xmlns="http://www.w3.org/2000/svg" xmlns:xlink="http://www.w3.org/1999/xlink" x="0px" y="0px"
	 width="297.08px" height="116.55px" viewBox="0 0 297.08 116.55" style="enable-background:new 0 0 297.08 116.55;"
	 xml:space="preserve">
<style type="text/css">
	.st0{display:none;}
	.st1{fill:none;}
	.st2{fill:#141414;}
	.st3{fill:#FFFFFF;}
	.st4{display:inline;}
</style>
<g id="text" class="st0">
	
		<text id="XMLID_4_" transform="matrix(1 0 0 1 -459.5668 298.6403)" class="st2" style="font-family:'GreatRebellion'; font-size:72px; letter-spacing:4;">Mythos</text>
	
		<text id="XMLID_3_" transform="matrix(1 0 0 1 -457.5412 300.1532)" class="st2" style="font-family:'GreatRebellion'; font-size:72px; letter-spacing:4;">Mythos</text>
</g>
<g id="Layer_13">
	<g id="XMLID_235_">
		<path id="XMLID_236_" class="st1" d="M237.24,48.82c0.11-0.11,0.21-0.21,0.33-0.33l-0.15-0.2L237.24,48.82z"/>
		<path id="XMLID_237_" class="st1" d="M74.67,33.65c-0.6-2.11-1.06-3.82-1.4-5.16c-0.15,0.69-0.31,1.38-0.46,2.07L74.67,33.65z"/>
		<polygon id="XMLID_238_" class="st1" points="78.13,6.57 78.14,6.55 78.13,6.57 		"/>
		<path id="XMLID_239_" class="st1" d="M189.35,51.79c0.18-0.53,0.38-1.06,0.58-1.58c-0.29,0.08-0.83,0.21-1.58,0.39L189.35,51.79z"
			/>
		<path id="XMLID_240_" class="st1" d="M291.21,6.99l0.08-0.06c-0.04,0-0.07,0.01-0.11,0.01L291.21,6.99z"/>
		<path id="XMLID_241_" class="st2" d="M24.36,49.37c-0.28-1.13-0.62-4.82-1.02-11.07h-0.18l-10.3,23.17
			C9.61,70.11,7.7,74.66,7.14,75.1l0.21,0.39c-1.03,2.37-2.03,3.55-2.99,3.55c0,0.63-0.4,1.3-1.2,2h-0.6l5.33,6.44h0.6
			c0.8-0.7,1.2-1.37,1.2-2c0.96,0,1.96-1.18,2.99-3.55l-0.21-0.39c0.56-0.44,2.47-4.99,5.73-13.64l6.38-14.34
			c-0.14-1.59-0.28-2.99-0.43-4.18H24.36z"/>
		<polygon id="XMLID_242_" class="st2" points="29.91,24.55 29.91,24.55 29.91,24.55 		"/>
		<path id="XMLID_243_" class="st2" d="M1.79,79.64l-0.21-0.39c0.21,0,0.68-1.13,1.41-3.38c-0.33,0-0.53-0.26-0.6-0.77l0.18-0.39
			v-0.21H2.39c-1.01,2.16-1.73,3.28-2.18,3.38l2.36,3.16c0-0.14,0.27-1,0.81-2.57C2.74,79.25,2.21,79.64,1.79,79.64z"/>
		<path id="XMLID_244_" class="st2" d="M30.27,26.62c0,0.26,0.07,0.39,0.21,0.39l-0.21,1.02c0.14,4.97,0.21,8.52,0.21,10.65
			c0,0.07,0.07,0.34,0.21,0.81h-0.21l0.21,0.39v24.54h0.18c0-0.3,0.2-0.7,0.6-1.2v-0.18c-0.4-0.44-0.6-0.79-0.6-1.02l5.16-8.37
			v-7.35l-0.21-0.39h0.21c-0.14-0.47-0.21-0.74-0.21-0.81c0-2.13-0.07-5.68-0.21-10.65l0.21-1.02c-0.14,0-0.21-0.13-0.21-0.39
			l0.21-0.39c-0.19-1.2-0.46-1.79-0.81-1.79l-5.07-6.3c0.22,0.24,0.41,0.78,0.54,1.65L30.27,26.62z"/>
		<path id="XMLID_245_" class="st2" d="M22.18,32.77c0.11-0.02,0.24-0.16,0.38-0.4l-0.8-1.78l-0.18,1.37
			C21.98,31.97,22.18,32.24,22.18,32.77z"/>
		<polygon id="XMLID_246_" class="st2" points="43.04,108.36 43.05,108.36 43.05,108.36 		"/>
		<path id="XMLID_247_" class="st2" d="M44.93,107.17c-0.14-0.23-0.21-0.5-0.21-0.81h-0.18c0,0.3-0.07,0.57-0.21,0.81
			c0.14,0.23,0.21,0.42,0.21,0.56l-1.02,0.81h-0.18c-0.05,0-0.1-0.01-0.14-0.03l0.98,0.91C44.51,107.92,44.75,107.17,44.93,107.17z"
			/>
		<path id="XMLID_248_" class="st2" d="M61.95,22.47c-7.24,10.78-14.04,21.6-20.39,32.45l-7.52,12.45v0.21
			c5.55-8.46,8.59-12.95,9.11-13.46h0.21c-1.66,3.87-5.36,10.34-11.07,19.41c0,0.19-1.2,1.37-3.59,3.55c-0.26,0-0.39-0.4-0.39-1.2
			h-0.21v2.6c0,0.73-0.53,1.38-1.58,1.97h-0.39l5.33,6.44h0.39c1.05-0.59,1.58-1.24,1.58-1.97v-2.6h0.21c0,0.8,0.13,1.2,0.39,1.2
			c2.39-2.18,3.59-3.36,3.59-3.55c5.72-9.07,9.41-15.54,11.07-19.41h-0.21l-0.61-0.82c2.48-4.2,5.02-8.39,7.63-12.58
			C57.61,38.72,59.76,30.48,61.95,22.47z"/>
		<path id="XMLID_249_" class="st2" d="M69.71,26.93l0.6-0.28c1.24,0,3.15,5.16,5.73,15.47h0.28c0-0.59,0.19-0.88,0.56-0.88
			c-0.87-2.93-1.61-5.45-2.22-7.59l-1.87-3.09c0.16-0.69,0.31-1.38,0.46-2.07c-0.44-1.75-0.67-2.85-0.67-3.28
			c1.24,1.62,2.39,4.1,3.45,7.45c1.01,1.05,2.25,5.54,3.73,13.46l5.73,18.63c0.15-0.12,0.91-1.36,2.25-3.66l-2.64-8.6
			c-1.48-7.92-2.72-12.41-3.73-13.46c-1.05-3.35-2.2-5.84-3.45-7.45l-4.24-5.07c0.58-2.67,1.13-5.36,1.67-8.08l-0.18-0.42
			c0.4-0.21,0.6-0.8,0.6-1.76l-0.21-0.39c0.37-0.33,1.1-1.39,2.18-3.2v-0.39l-1.1-1.32c1.39-2.17,2.08-3.57,2.08-4.2
			c-0.14,0-0.34-0.07-0.6-0.21l-0.01,0.02l0,0l0.01-0.02l-4.74-6.23c0,0.84-1.25,3.08-3.76,6.71v0.39l0.39-0.18h0.21v0.39
			l-0.21,0.39h0.6c0-0.4,0.6-1.13,1.79-2.18v0.39c-1.08,1.81-1.81,2.87-2.18,3.2l0.21,0.39c0,0.96-0.2,1.55-0.6,1.76L70.03,12
			c-2.48,12.61-5.38,24.61-8.68,36l-1.2,4.96h-0.39v-0.42h-0.21l-0.18,1.2v0.21h0.18v-0.6h0.39v0.18c-0.26,0.87-0.39,1.46-0.39,1.79
			l-0.39-0.21h-0.21c-0.12,0.54-0.18,1.27-0.18,2.18h0.18c0,0.35-0.39,2.13-1.16,5.34h-0.21l-0.39-0.18v0.77h0.39
			c0,0.84-0.46,1.97-1.37,3.38v0.39h0.18L56.6,66h0.39c0,1.45-0.4,2.18-1.2,2.18v0.77h0.42L56,70.36h-0.39v-0.39h-0.21v0.77h0.39
			l-0.18,1.37H55.2l0.21-0.98v-0.18c-0.26,0-0.39,0.73-0.39,2.18h0.18v0.18c-0.21,1.59-0.47,2.39-0.77,2.39
			c0-0.14-0.07-0.21-0.21-0.21v0.39h0.42c-0.12,1.59-0.32,2.39-0.6,2.39h-0.21l0.21-0.81V76.9h-0.21c0,0.52-0.13,1.23-0.39,2.14
			c0.26,0.05,0.39,0.19,0.39,0.42v0.6h-0.21l-0.39-0.21v0.77h0.39v0.42h-0.18l-0.39-0.21v0.81h0.39v0.39h-0.21l-0.39-0.21
			l-0.21,1.41v0.39h0.42v0.6l-0.81,0.77v0.81l0.39,0.6l-0.39,0.18c0-0.12-0.07-0.18-0.21-0.18c-0.26,2.02-0.52,3.13-0.77,3.34
			c0.12,0.26,0.18,0.46,0.18,0.6c-0.16,0-0.49,1.2-0.98,3.59c-0.63,0-1.49,2.3-2.57,6.89l-0.39-0.18h-0.21v0.6
			c0,0.35-0.13,0.75-0.39,1.2c0.26,0.12,0.46,0.18,0.6,0.18v0.6h-0.21l-0.39-0.21l-0.21,0.42c0,0.12,0.07,0.18,0.21,0.18
			c-1.01,3.77-1.79,5.95-2.36,6.54h-0.21l2.1,2.4l-1.39,0.69l2.41,2.95l0.85-1.51l0.04,0.05l0,0c0.06,0.17,0.17,0.27,0.34,0.27h0.18
			l1.02-0.81c0-0.14-0.07-0.33-0.21-0.56c0.14-0.23,0.21-0.5,0.21-0.81h0.18c0,0.3,0.07,0.57,0.21,0.81c-0.19,0-0.46,0.86-0.81,2.57
			l0.21,0.39h0.21c0.56-0.59,1.35-2.77,2.36-6.54c-0.14,0-0.21-0.06-0.21-0.18l0.21-0.42l0.39,0.21h0.21v-0.6
			c-0.14,0-0.34-0.06-0.6-0.18c0.26-0.45,0.39-0.84,0.39-1.2v-0.6h0.21l0.39,0.18c1.08-4.59,1.93-6.89,2.57-6.89
			c0.49-2.39,0.82-3.59,0.98-3.59c0-0.14-0.06-0.34-0.18-0.6c0.26-0.21,0.52-1.32,0.77-3.34c0.14,0,0.21,0.06,0.21,0.18l0.39-0.18
			l-0.39-0.6v-0.81l0.81-0.77v-0.6h-0.42v-0.39l0.21-1.41l0.39,0.21h0.21v-0.39h-0.39v-0.81l0.39,0.21h0.18v-0.42h-0.39v-0.77
			l0.39,0.21h0.21v-0.6c0-0.23-0.13-0.37-0.39-0.42c0.26-0.91,0.39-1.63,0.39-2.14h0.21v0.56l-0.21,0.81h0.21
			c0.28,0,0.48-0.8,0.6-2.39h-0.42v-0.39c0.14,0,0.21,0.07,0.21,0.21c0.3,0,0.56-0.8,0.77-2.39v-0.18h-0.18
			c0-1.45,0.13-2.18,0.39-2.18v0.18l-0.21,0.98h0.42l0.18-1.37h-0.39v-0.77h0.21v0.39h0.39l0.21-1.41h-0.42v-0.77
			c0.8,0,1.2-0.73,1.2-2.18h-0.39l-0.21,0.98h-0.18v-0.39c0.91-1.41,1.37-2.53,1.37-3.38h-0.39v-0.77l0.39,0.18h0.21
			c0.77-3.21,1.16-4.99,1.16-5.34h-0.18c0-0.91,0.06-1.64,0.18-2.18h0.21l0.39,0.21c0-0.33,0.13-0.93,0.39-1.79v-0.18h-0.39v0.6
			h-0.18v-0.21l0.18-1.2h0.21v0.42h0.39l1.2-4.96c1.94-6.7,3.74-13.62,5.4-20.75C71.2,30.1,70.41,27.85,69.71,26.93z"/>
		<path id="XMLID_250_" class="st2" d="M152.57,30.73c-0.75,1.92-1.32,3.19-1.72,3.8v0.21h0.21c0.54-1.34,0.91-2,1.13-2
			c0.26,0.05,0.39,0.18,0.39,0.39l1.07-1.39l-1.17-1.66l0,0c0.06,0.06,0.1,0.15,0.1,0.27V30.73z"/>
		<path id="XMLID_251_" class="st2" d="M159.11,27.74c0,0.82-2.11,5.2-6.33,13.15l-3.48,7.56h0.21c2.52-0.67,5.57-1.38,9.14-2.14
			c3.86-7.3,5.79-11.35,5.79-12.13V34l-0.18-0.42l-5.33-6.44l0.18,0.42V27.74z"/>
		<polygon id="XMLID_252_" class="st2" points="161.52,78.19 161.52,78.19 161.52,78.18 		"/>
		<path id="XMLID_253_" class="st2" d="M166.25,66.17h-0.21c-1.05,3.05-1.83,4.57-2.32,4.57h-0.35c-0.7,0-1.15-0.11-1.38-0.32
			l1.43,2.42c0.78-1.85,1.72-3.99,2.83-6.47V66.17z"/>
		<path id="XMLID_254_" class="st2" d="M137.42,63.78c-0.33,0-0.66-0.13-0.98-0.39c0.4-1.57,0.84-2.84,1.34-3.8h-0.18
			c-0.16,0-2.47,0.6-6.93,1.79l4.56,5.24l0.59,0.92C136.33,66.32,136.86,65.07,137.42,63.78z"/>
		<path id="XMLID_255_" class="st2" d="M170.08,50.63c-1.38,0.28-2.92,0.68-4.61,1.2c-0.26-0.12-0.46-0.18-0.6-0.18
			c0,0.3-2.05,0.9-6.15,1.79c-1.78,0.45-3,0.84-3.66,1.2c-0.75,0-1.25,0.13-1.51,0.39h-0.39l-0.39-0.21c0,0.52-1.73,1.05-5.2,1.62
			c0,0.21-0.76,0.54-2.29,0.98c-6.28,15.33-9.42,23.81-9.42,25.45l-0.39,0.21h-0.39c-0.26,0-0.39-0.13-0.39-0.39
			c0.38-1.66,0.82-3.26,1.34-4.78c-0.14,0.02-1.49,3.14-4.04,9.35c-0.63,1.85-1.14,2.78-1.51,2.78l-0.21-0.39
			c0.14-0.26,0.21-0.46,0.21-0.6l-0.39,0.21c-0.26,0-0.39-0.14-0.39-0.42c0-0.21,0.13-0.61,0.39-1.2l-0.39-0.18h-0.39
			c0,0.52-0.39,0.77-1.16,0.77l5.33,6.44c0.77,0,1.16-0.26,1.16-0.77h0.39l0.39,0.18c-0.26,0.59-0.39,0.98-0.39,1.2
			c0,0.28,0.13,0.42,0.39,0.42l0.39-0.21c0,0.14-0.07,0.34-0.21,0.6l0.21,0.39c0.38,0,0.88-0.93,1.51-2.78
			c0.91-2.21,1.66-4.02,2.27-5.45l0.44,0.88c0,0.26,0.13,0.39,0.39,0.39h0.39l0.39-0.21c0-1.64,3.14-10.13,9.42-25.45
			c1.52-0.44,2.29-0.77,2.29-0.98c3.47-0.56,5.2-1.1,5.2-1.62l0.39,0.21h0.39c0.26-0.26,0.76-0.39,1.51-0.39
			c0.66-0.35,1.88-0.75,3.66-1.2c0.88-0.19,1.64-0.36,2.33-0.53L170.08,50.63z"/>
		<path id="XMLID_256_" class="st2" d="M189.35,51.79l-1-1.2c0.75-0.17,1.29-0.3,1.58-0.39c0.62-1.57,1.32-3.15,2.15-4.73l-2.99-3.6
			c0,1.2-1.41,1.79-4.22,1.79c-0.02,0.07-1.44,0.41-4.25,1.02c0.26,0.42,0.39,0.82,0.39,1.2c1.41-0.28,2.44-0.42,3.09-0.42l0.39,0.6
			v0.6c0,0.42-2.82,1.29-8.47,2.6c-3.7,8.11-7.48,17.19-11.32,27.25l-0.39,0.21h-0.21c-0.26,0-0.39-0.13-0.39-0.39l1.37-3.8v-0.21
			h-0.21c-1.45,3.87-2.34,5.86-2.67,5.98h-0.39c-0.13,0-0.22-0.03-0.29-0.09l5.23,6.14c0,0.26,0.13,0.39,0.39,0.39h0.39
			c0.2-0.07,0.61-0.85,1.23-2.32l0.28,0.35c0,0.26,0.13,0.39,0.39,0.39h0.21l0.39-0.21c3.84-10.05,7.62-19.14,11.32-27.25
			c3.6-0.84,6.05-1.49,7.36-1.97C188.9,53.08,189.12,52.44,189.35,51.79z"/>
		<path id="XMLID_257_" class="st2" d="M188.15,13.61c0.26,0,0.39,0.27,0.39,0.81h0.18c0-0.63,0.77-1.89,2.32-3.76h0.18l0.6,0.39
			l1.34,0.21c0.56,0,0.95,0.26,1.16,0.77v0.21c-4.78,10.36-9.79,20.44-15.01,30.23h0.21c0.07,0,0.9-0.06,2.5-0.18
			c0,0.19,0.19,0.39,0.56,0.6c0.52-0.26,2.43-0.57,5.7-0.93c3.92-7.6,7.71-15.36,11.37-23.29v-0.21c-0.06-0.14-0.13-0.26-0.21-0.36
			l0,0l-4.61-5.55c5.01-0.75,8.25-1.36,9.68-1.82v-0.49l-0.81-0.88l4.44-0.56h0.67c0.3,0,0.46-0.16,0.46-0.49
			c0.14,0,0.21,0.08,0.21,0.25c1.8-0.12,2.71-0.43,2.71-0.95V7.36l-5.33-6.44v0.25c0,0.52-0.9,0.83-2.71,0.95
			c0-0.16-0.07-0.25-0.21-0.25c0,0.33-0.15,0.49-0.46,0.49h-0.67l-5.87,0.74v0.25c0.75,0,1.13,0.15,1.13,0.46v0.25l0.46-0.25h0.67
			V4.3c-1.5,0.49-4.97,1.14-10.41,1.93l-0.21,0.49l1.13-0.25h1.13v0.49l-5.87,1.44l-0.46-0.25c-18.19,3.07-29.64,5.25-34.35,6.54
			c-10.38,2.18-15.57,3.46-15.57,3.83c0,0.49-0.9,3.15-2.71,7.98c-5.63,13.73-10.9,27.98-15.82,42.75
			c-2.72,8.74-4.45,13.65-5.2,14.73c0,0.16,0.07,0.25,0.21,0.25c0,0.35-0.67,2.29-2,5.8l-0.46-0.25l-0.91,1.44h-0.21l5.33,6.44h0.21
			l0.91-1.44l0.46,0.25c1.34-3.52,2-5.45,2-5.8c-0.14,0-0.21-0.08-0.21-0.25c0.75-1.08,2.48-5.99,5.2-14.73
			c4.92-14.77,10.2-29.02,15.82-42.75c1.8-4.83,2.71-7.49,2.71-7.98c0-0.37,5.19-1.65,15.57-3.83c4.46-1.22,14.98-3.24,31.52-6.06
			c0.34-0.58,0.67-1.07,0.97-1.47H188.15z"/>
		<path id="XMLID_258_" class="st2" d="M111.48,72.15c0.3-1.03,0.46-1.59,0.46-1.69v-0.25h-0.21c-0.82,2.91-1.58,4.36-2.29,4.36
			h-0.21l1.51,1.84l0.98-2.82L111.48,72.15z"/>
		<path id="XMLID_259_" class="st2" d="M108.56,24.58l-0.25-0.49v-0.7l3.79-0.83c0.11-0.16,0.21-0.33,0.32-0.49
			c-0.35,0.06-0.6,0.09-0.71,0.09c0-0.14-0.08-0.21-0.25-0.21c0,0.3-0.15,0.46-0.46,0.46l-0.42-0.25c0,0.33-0.15,0.49-0.46,0.49
			l-0.46-0.25l-1.37,0.25c-0.14,0-0.21-0.08-0.21-0.25c-2.6,0.82-4.03,1.23-4.29,1.23l4.27,5.15c0.92-1.45,1.95-3.05,3.09-4.81
			C110.02,24.38,109.14,24.58,108.56,24.58z"/>
		<path id="XMLID_260_" class="st2" d="M114.18,18.08h-0.67c-0.54,0.3-1.14,0.46-1.79,0.46c-0.14,0-0.24-0.04-0.31-0.1l0,0
			l0.46,0.49c0.7-0.2,1.47-0.4,2.32-0.61V18.08z"/>
		<path id="XMLID_261_" class="st2" d="M127.3,20.22h-0.21l-9.84,2.59c-4.24,7.1-11.87,20.31-22.89,39.62
			c-12.94,24.02-21.15,38.73-24.64,44.12c-0.47,0.4-0.75,0.6-0.84,0.6l5.05,6.06c0.19,0,0.28,0.11,0.28,0.32
			c0.09,0,0.38-0.2,0.84-0.6c3.49-5.39,11.71-20.1,24.64-44.12c10.98-19.25,18.59-32.43,22.84-39.55l1.9-0.5
			C125.43,25.89,126.4,23.04,127.3,20.22z"/>
		<path id="XMLID_262_" class="st2" d="M130.63,12.39v-0.28c-0.5,0.54-0.95,1.04-1.34,1.51c0.27-0.05,0.55-0.1,0.82-0.16
			C130.34,13.03,130.52,12.67,130.63,12.39z"/>
		<path id="XMLID_263_" class="st2" d="M121.85,10.3c0.4-1.01,1.55-2.53,3.45-4.57v0.28c-0.49,1.27-2.2,3.94-5.13,8.02v0.28
			c1.5-1.31,3.12-3.41,4.85-6.29h0.56V8.3l-4.62,6.96c2.23-0.46,4.85-0.98,7.85-1.56l4.7-7.33L128.18,0l-6.61,10.3H121.85z"/>
		<path id="XMLID_264_" class="st2" d="M73.44,40.39v-0.56c-0.09-0.45-0.18-0.89-0.27-1.32l-1.14-1.28
			c0.75,1.69,1.13,2.74,1.13,3.16H73.44z"/>
		<path id="XMLID_265_" class="st2" d="M72.03,100.55h-0.32c0,0.77-0.28,1.16-0.84,1.16l-0.28-0.6c0.38,0,0.56-0.19,0.56-0.56v-0.28
			c-0.33,0-1,0.48-2,1.44l1.35,1.79l1.53-2.67V100.55z"/>
		<path id="XMLID_266_" class="st2" d="M102.37,38.95c0-0.15,0.07-0.39,0.21-0.73l-0.49-0.71v1.44H102.37z"/>
		<path id="XMLID_267_" class="st2" d="M222.31,19.45c-2.44,1.55-3.66,2.4-3.66,2.57c-0.26,0.49-2.06,1.98-5.41,4.46
			c0,0.14-2.21,2.48-6.64,7.03c-5.06,5.91-8.17,10.11-9.32,12.62c-2.63,4.2-3.94,7.66-3.94,10.41c-0.07,0-0.25,1.54-0.53,4.61v5.03
			l0.25,0.39v0.67c0,1.9,1.09,3.21,3.27,3.94l1.82,0.71v-4.29c0.28-3.07,0.46-4.61,0.53-4.61c0-2.74,1.31-6.21,3.94-10.41
			c1.15-2.51,4.25-6.71,9.32-12.62c4.43-4.55,6.64-6.89,6.64-7.03c3.35-2.48,5.16-3.97,5.41-4.46c0-0.16,1.22-1.02,3.66-2.57
			c0.91-0.28,1.37-0.79,1.37-1.51l-5.33-6.44C223.69,18.67,223.23,19.17,222.31,19.45z"/>
		<polygon id="XMLID_268_" class="st2" points="230.93,5.27 230.93,5.27 230.94,5.28 		"/>
		<path id="XMLID_269_" class="st2" d="M230.72,7.53c-0.12-0.55-0.2-0.93-0.24-1.18l0-0.01L229.58,5c0.29,0.68,0.58,1.51,0.86,2.53
			H230.72z"/>
		<polygon id="XMLID_270_" class="st2" points="228.33,3.14 228.34,3.15 228.35,3.16 		"/>
		<path id="XMLID_271_" class="st3" d="M46.9,103.58c-0.14,0-0.21-0.06-0.21-0.18l0.21-0.42l0.39,0.21h0.21v-0.6
			c-0.14,0-0.34-0.06-0.6-0.18c0.26-0.45,0.39-0.84,0.39-1.2v-0.6h0.21l0.39,0.18c1.08-4.59,1.93-6.89,2.57-6.89
			c0.49-2.39,0.82-3.59,0.98-3.59c0-0.14-0.06-0.34-0.18-0.6c0.26-0.21,0.52-1.32,0.77-3.34c0.14,0,0.21,0.06,0.21,0.18l0.39-0.18
			l-0.39-0.6v-0.81l0.81-0.77v-0.6h-0.42v-0.39l0.21-1.41l0.39,0.21h0.21v-0.39h-0.39v-0.81l0.39,0.21h0.18v-0.42h-0.39v-0.77
			l0.39,0.21h0.21v-0.6c0-0.23-0.13-0.37-0.39-0.42c0.26-0.91,0.39-1.63,0.39-2.14h0.21v0.56l-0.21,0.81h0.21
			c0.28,0,0.48-0.8,0.6-2.39h-0.42v-0.39c0.14,0,0.21,0.07,0.21,0.21c0.3,0,0.56-0.8,0.77-2.39v-0.18h-0.18
			c0-1.45,0.13-2.18,0.39-2.18v0.18l-0.21,0.98h0.42l0.18-1.37h-0.39v-0.77h0.21v0.39H56l0.21-1.41h-0.42v-0.77
			c0.8,0,1.2-0.73,1.2-2.18H56.6l-0.21,0.98h-0.18V66.6c0.91-1.41,1.37-2.53,1.37-3.38H57.2v-0.77l0.39,0.18h0.21
			c0.77-3.21,1.16-4.99,1.16-5.34h-0.18c0-0.91,0.06-1.64,0.18-2.18h0.21l0.39,0.21c0-0.33,0.13-0.93,0.39-1.79v-0.18h-0.39v0.6
			h-0.18v-0.21l0.18-1.2h0.21v0.42h0.39l1.2-4.96c3.3-11.39,6.2-23.39,8.68-36l-0.18-0.42c0.4-0.21,0.6-0.8,0.6-1.76l-0.21-0.39
			c0.37-0.33,1.1-1.39,2.18-3.2V5.85c-1.2,1.05-1.79,1.78-1.79,2.18h-0.6l0.21-0.39V7.25h-0.21l-0.39,0.18V7.04
			c2.51-3.63,3.76-5.87,3.76-6.71c-0.14,0-0.34-0.07-0.6-0.21L72.63,0.5l-0.42-0.18c-1.83,2.58-2.94,3.96-3.34,4.15
			c-3.16,3.96-4.75,6-4.75,6.12C53.04,25.5,43.93,38.95,36.81,50.95c0,0.14,0.13,0.21,0.39,0.21v0.6l-1.17,1.9l-5.16,8.37
			c0,0.23,0.2,0.57,0.6,1.02v0.18c-0.4,0.49-0.6,0.89-0.6,1.2h-0.18V39.88l-0.21-0.39h0.21c-0.14-0.47-0.21-0.74-0.21-0.81
			c0-2.13-0.07-5.68-0.21-10.65l0.21-1.02c-0.14,0-0.21-0.13-0.21-0.39l0.21-0.39c-0.14-0.87-0.32-1.42-0.54-1.65
			c-0.01-0.01-0.02-0.02-0.02-0.03c0,0,0,0,0,0c-0.07-0.07-0.15-0.11-0.24-0.11h-1.16l-0.81,0.6l-1.2-0.21
			c-0.38,0-0.56,0.87-0.56,2.6c-0.8,0-1.2,0.59-1.2,1.76l-0.39-0.18h-0.21l-0.39,0.18c-0.49,1.6-0.89,2.66-1.2,3.18
			c-0.14,0.24-0.27,0.38-0.38,0.4c0-0.54-0.2-0.81-0.6-0.81l0.18-1.37c-0.19-0.4-0.39-0.6-0.6-0.6h-0.18l-0.39,0.18
			c-1.43,2.41-3.08,5.59-4.96,9.53C8.52,54.61,3.3,67.19,0,77.46l0.21,0.42c0.45-0.09,1.17-1.22,2.18-3.38h0.18v0.21L2.39,75.1
			c0.07,0.52,0.27,0.77,0.6,0.77c-0.73,2.25-1.2,3.38-1.41,3.38l0.21,0.39c0.42,0,0.95-0.39,1.58-1.16
			c-0.54,1.57-0.81,2.43-0.81,2.57h0.6c0.8-0.7,1.2-1.37,1.2-2c0.96,0,1.96-1.18,2.99-3.55L7.14,75.1
			c0.56-0.44,2.47-4.99,5.73-13.64l10.3-23.17h0.18c0.4,6.26,0.74,9.95,1.02,11.07h-0.21c0.14,1.19,0.28,2.59,0.43,4.18
			c0.51,5.76,1.03,14.12,1.54,25.1v1.79h0.39c1.05-0.59,1.58-1.24,1.58-1.97v-2.6h0.21c0,0.8,0.13,1.2,0.39,1.2
			c2.39-2.18,3.59-3.36,3.59-3.55c5.72-9.07,9.41-15.54,11.07-19.41h-0.21c-0.52,0.52-3.55,5-9.11,13.46v-0.21l7.52-12.45
			c6.35-10.85,13.15-21.67,20.39-32.45c-2.18,8.01-4.33,16.25-6.46,24.68c-1.09,4.32-2.17,8.68-3.25,13.12
			c-4.08,19.22-7.04,32.07-8.89,38.57v0.21h0.18c0.8-0.63,1.2-1.23,1.2-1.79h0.21v0.21c-0.8,3-1.45,6.49-1.97,10.48
			c0,0.18,0.03,0.32,0.08,0.42c0,0,0,0,0,0c0.04,0.07,0.09,0.12,0.16,0.15c0.04,0.02,0.09,0.03,0.14,0.03h0.18l1.02-0.81
			c0-0.14-0.07-0.33-0.21-0.56c0.14-0.23,0.21-0.5,0.21-0.81h0.18c0,0.3,0.07,0.57,0.21,0.81c-0.18,0-0.42,0.76-0.74,2.25
			c-0.02,0.1-0.04,0.2-0.07,0.32l0.21,0.39h0.21C45.11,109.53,45.89,107.35,46.9,103.58z"/>
		<path id="XMLID_272_" class="st3" d="M162.2,78.3c0.33-0.12,1.22-2.11,2.67-5.98h0.21v0.21l-1.37,3.8c0,0.26,0.13,0.39,0.39,0.39
			h0.21l0.39-0.21c3.84-10.05,7.62-19.14,11.32-27.25c5.65-1.31,8.47-2.18,8.47-2.6v-0.6l-0.39-0.6c-0.66,0-1.69,0.14-3.09,0.42
			c0-0.37-0.13-0.77-0.39-1.2c2.81-0.61,4.23-0.95,4.25-1.02c2.81,0,4.22-0.6,4.22-1.79c-0.29,0.03-0.56,0.06-0.84,0.09
			c-3.27,0.36-5.18,0.67-5.7,0.93c-0.38-0.21-0.56-0.41-0.56-0.6c-1.59,0.12-2.43,0.18-2.5,0.18h-0.21
			c5.23-9.8,10.23-19.88,15.01-30.23v-0.21c-0.21-0.52-0.6-0.77-1.16-0.77l-1.34-0.21l-0.6-0.39h-0.18
			c-1.55,1.88-2.32,3.13-2.32,3.76h-0.18c0-0.54-0.13-0.81-0.39-0.81h-0.21c-0.3,0.4-0.62,0.89-0.97,1.47
			c-1.02,1.72-2.23,4.22-3.64,7.49c-6.02,12.16-9.35,19.14-9.98,20.92c-5.62,1-10.52,1.94-14.7,2.82c-3.57,0.75-6.62,1.47-9.14,2.14
			h-0.21l3.48-7.56c4.22-7.95,6.33-12.33,6.33-13.15v-0.18l-0.18-0.42c-1.55,0.19-2.32,0.73-2.32,1.62c-0.87,0-1.5,0.53-1.9,1.58
			l-1.07,1.39l-1.07,1.39c0-0.21-0.13-0.34-0.39-0.39c-0.21,0-0.59,0.67-1.13,2h-0.21v-0.21c0.4-0.61,0.97-1.88,1.72-3.8v-0.39
			c0-0.12-0.03-0.2-0.1-0.27c-0.06-0.07-0.16-0.11-0.29-0.12h-0.35c-1.73,2.25-5.07,9.08-10.02,20.5c-2.65,0.7-4.5,1.43-5.55,2.18
			v0.21c0,0.07,0.13,0.27,0.39,0.6c-0.66,0-1.62,0.33-2.88,0.98c0,0.66,0.26,0.98,0.77,0.98v0.21c-1.03,0-1.55,0.4-1.55,1.2
			c-1.29,0.56-1.99,1.03-2.11,1.41v0.18c0.26,0.54,0.57,0.81,0.95,0.81v0.18c-0.94,0.23-1.58,0.5-1.93,0.81l0.77,1.2
			c4.45-1.2,6.76-1.79,6.93-1.79h0.18c-0.49,0.96-0.94,2.23-1.34,3.8c0.33,0.26,0.66,0.39,0.98,0.39c-0.55,1.29-1.09,2.54-1.6,3.77
			c-3.56,8.51-6.11,15.41-7.65,20.7c0.77,0,1.16-0.26,1.16-0.77h0.39l0.39,0.18c-0.26,0.59-0.39,0.98-0.39,1.2
			c0,0.28,0.13,0.42,0.39,0.42l0.39-0.21c0,0.14-0.07,0.34-0.21,0.6l0.21,0.39c0.38,0,0.88-0.93,1.51-2.78
			c2.55-6.21,3.9-9.33,4.04-9.35c-0.52,1.52-0.96,3.12-1.34,4.78c0,0.26,0.13,0.39,0.39,0.39h0.39l0.39-0.21
			c0-1.64,3.14-10.13,9.42-25.45c1.52-0.44,2.29-0.77,2.29-0.98c3.47-0.56,5.2-1.1,5.2-1.62l0.39,0.21h0.39
			c0.26-0.26,0.76-0.39,1.51-0.39c0.66-0.35,1.88-0.75,3.66-1.2c4.1-0.89,6.15-1.49,6.15-1.79c0.14,0,0.34,0.06,0.6,0.18
			c1.69-0.52,3.22-0.91,4.61-1.2l-3.69,8.72l-4.57,10.79c0.02,0.11,0.08,0.2,0.17,0.28c0.23,0.21,0.68,0.32,1.38,0.32h0.35
			c0.49,0,1.27-1.52,2.32-4.57h0.21v0.21c-1.11,2.47-2.05,4.62-2.83,6.47c-0.87,2.08-1.54,3.78-1.99,5.07
			c0,0.12,0.03,0.21,0.09,0.27c0,0,0,0.01,0,0.01s0,0.01,0.01,0.01c0.06,0.06,0.16,0.09,0.29,0.09H162.2z"/>
		<path id="XMLID_273_" class="st3" d="M108.56,89.8l0.46,0.25c1.34-3.52,2-5.45,2-5.8c-0.14,0-0.21-0.08-0.21-0.25
			c0.75-1.08,2.48-5.99,5.2-14.73c4.92-14.77,10.2-29.02,15.82-42.75c1.8-4.83,2.71-7.49,2.71-7.98c0-0.37,5.19-1.65,15.57-3.83
			c4.71-1.29,16.16-3.47,34.35-6.54l0.46,0.25l5.87-1.44V6.48h-1.13l-1.13,0.25l0.21-0.49c5.44-0.8,8.91-1.44,10.41-1.93V3.81h-0.67
			l-0.46,0.25V3.81c0-0.3-0.38-0.46-1.13-0.46V3.1l5.87-0.74h0.67c0.3,0,0.46-0.16,0.46-0.49c0.14,0,0.21,0.08,0.21,0.25
			c1.8-0.12,2.71-0.43,2.71-0.95V0.92h-0.21l-0.46,0.25V0.92c-5.37,0.54-8.53,0.94-9.49,1.2c-3.91,0.21-5.87,0.62-5.87,1.23
			c-0.26,0-0.41-0.16-0.46-0.49c-6,1.01-9.23,1.65-9.7,1.93V4.54l-2.5,0.49c0-0.16,0.08-0.25,0.25-0.25
			c-0.16-0.3-0.25-0.55-0.25-0.74h-0.67l-0.91,0.98h-0.21l0.21-0.49V4.3c-4.08,0.49-6.34,0.9-6.79,1.23V5.28
			c-6.12,0.96-13.27,2.25-21.45,3.87c-1.41,0.8-4.04,1.59-7.91,2.39c-3.81,0.69-7.24,1.33-10.3,1.91c-0.28,0.05-0.55,0.11-0.82,0.16
			c-0.16,0.03-0.32,0.06-0.47,0.09c-3.01,0.58-5.62,1.1-7.85,1.56l4.62-6.96V8.02h-0.56c-1.73,2.88-3.35,4.98-4.85,6.29v-0.28
			c2.93-4.08,4.64-6.75,5.13-8.02V5.73c-1.9,2.04-3.05,3.56-3.45,4.57h-0.28L128.18,0h-0.28c-0.26,0-1.13,0.95-2.6,2.85
			c-3.39,4.99-6.4,9.47-9.04,13.43c-3.32,0.76-4.99,1.28-4.99,1.55v0.25c0,0.17,0.05,0.29,0.14,0.36c0.08,0.06,0.18,0.1,0.31,0.1
			c0.66,0,1.25-0.15,1.79-0.46h0.67v0.25c-0.85,0.21-1.62,0.41-2.32,0.61c-3.42,0.96-5.14,1.8-5.14,2.52
			c-1.99,0.59-3.05,1.07-3.16,1.44v0.25l0.25,0.49c0.26,0,1.69-0.41,4.29-1.23c0,0.16,0.07,0.25,0.21,0.25l1.37-0.25l0.46,0.25
			c0.3,0,0.46-0.16,0.46-0.49l0.42,0.25c0.3,0,0.46-0.15,0.46-0.46c0.16,0,0.25,0.07,0.25,0.21c0.11,0,0.35-0.03,0.71-0.09
			c-0.11,0.17-0.22,0.33-0.32,0.49l-3.79,0.83v0.7l0.25,0.49c0.58,0,1.46-0.21,2.62-0.6c-1.14,1.75-2.17,3.36-3.09,4.81
			c-3.08,4.86-4.92,8-5.5,9.44c-0.14,0.34-0.21,0.58-0.21,0.73h-0.28v-1.44l-4.57,6.33c-4.55,8.13-7.8,13.87-9.78,17.26
			c-1.34,2.3-2.1,3.54-2.25,3.66l-5.73-18.63c-1.48-7.92-2.72-12.41-3.73-13.46c-1.05-3.35-2.2-5.84-3.45-7.45
			c0,0.43,0.22,1.53,0.67,3.28c0.34,1.34,0.81,3.05,1.4,5.16c0.61,2.14,1.34,4.66,2.22,7.59c-0.38,0-0.56,0.29-0.56,0.88h-0.28
			c-2.58-10.31-4.49-15.47-5.73-15.47l-0.6,0.28c0.69,0.92,1.49,3.17,2.37,6.75c0.35,1.4,0.71,3.01,1.09,4.82
			c0.09,0.43,0.18,0.87,0.27,1.32v0.56h-0.28c0-0.42-0.38-1.48-1.13-3.16l-0.6,0.28c0,1.85,3.45,13.51,10.34,34.98L71.44,93.38
			c0,0.59-0.58,1.53-1.14,4.15l-1.14,4.18c1.01-0.96,1.68-1.44,2-1.44v0.28c0,0.37-0.19,0.56-0.56,0.56l0.28,0.6
			c0.56,0,0.84-0.39,0.84-1.16h0.32v0.28l-1.53,2.67l-1.92,3.34c0.19,0,0.28,0.11,0.28,0.32c0.09,0,0.38-0.2,0.84-0.6
			c3.49-5.39,11.71-20.1,24.64-44.12c11.02-19.32,18.65-32.52,22.89-39.62l9.84-2.59h0.21c-0.9,2.82-1.87,5.67-2.86,8.54
			c-2.27,6.53-4.77,13.18-7.54,19.97l0.25,0.49l-7.45,22.68c0,0.19,0.07,0.43,0.21,0.74c-0.3,0-0.53,0.65-0.67,1.93h0.21
			c0.7,0,1.46-1.45,2.29-4.36h0.21v0.25c0,0.09-0.15,0.66-0.46,1.69l0.25,1.44l-0.98,2.82l-3.31,9.52c0,0.63,0.38,0.95,1.13,0.95
			v0.74c-0.3,0.42-0.68,1.63-1.13,3.62h0.21L108.56,89.8z"/>
		<path id="XMLID_274_" class="st3" d="M198.23,78.34c1.43-0.09,2.14-0.19,2.14-0.28c1.52-0.09,3.25-0.63,5.17-1.62
			c2.09-0.49,5.87-3.2,11.36-8.12c4.69-5.25,7.8-9.4,9.35-12.45l4.04-7.98c0.82-1.83,1.23-2.87,1.23-3.13
			c-0.09-0.47-0.14-0.74-0.14-0.81l0.81-2.43c1.08-5.3,1.71-8.19,1.9-8.68c0.09-2.34,0.14-4.2,0.14-5.55v-1.2l-0.14-0.28
			c0.09,0,0.14-0.05,0.14-0.14v-0.14l-0.14-0.28h0.14l-0.14-0.67v-1.09c0-0.54-0.22-3.38-0.67-8.51c-0.77-5.17-1.52-8.3-2.25-9.41
			c-0.08-0.12-0.15-0.22-0.23-0.29c0,0-0.01-0.01-0.01-0.01c-0.12-0.11-0.24-0.16-0.35-0.16l-0.14,0.25v0.7
			c0,0.04,0.02,0.16,0.04,0.3c0.04,0.25,0.12,0.63,0.24,1.18h-0.28c-0.28-1.02-0.57-1.85-0.86-2.53c-0.4-0.92-0.81-1.54-1.23-1.84
			c0,0-0.01,0-0.01-0.01c-0.2-0.14-0.4-0.23-0.61-0.23h-0.14c-0.12,0-0.25,0.18-0.39,0.53c0.26,1.17,0.48,1.85,0.67,2.04
			c0.63,1.27,1.09,4.83,1.37,10.69c-0.09,0-0.14,0.05-0.14,0.14c0.26,2.55,0.39,4.95,0.39,7.17v3.41
			c0.33,26.72-23.13,43.73-23.13,43.73c-1.95,1.08-3.84,1.62-5.7,1.62c-0.45,0-1.03-0.09-1.76-0.28c0,0.09-0.05,0.14-0.14,0.14
			l-0.61-0.24l-1.82-0.71c-2.18-0.73-3.27-2.04-3.27-3.94v-0.67l-0.25-0.39v-5.03c0.28-3.07,0.46-4.61,0.53-4.61
			c0-2.74,1.31-6.21,3.94-10.41c1.15-2.51,4.25-6.71,9.32-12.62c4.43-4.55,6.64-6.89,6.64-7.03c3.35-2.48,5.16-3.97,5.41-4.46
			c0-0.16,1.22-1.02,3.66-2.57c0.91-0.28,1.37-0.79,1.37-1.51l-0.28-0.11h-0.56c-0.98,0-2.97,0.72-5.94,2.14
			c-4.52,2.39-9.49,6.27-14.91,11.64c-4.17,4.66-6.96,8.37-8.37,11.11c-0.55,0.92-1.06,1.84-1.54,2.76
			c-0.83,1.58-1.53,3.15-2.15,4.73c-0.21,0.53-0.4,1.06-0.58,1.58c-0.23,0.65-0.45,1.29-0.64,1.94c-1.05,3.56-1.58,7.11-1.58,10.65
			c0,3.59,0.76,6.53,2.29,8.82c0.35,0.46,0.7,0.88,1.07,1.28C192.81,77.05,195.39,78.34,198.23,78.34z"/>
		<path id="XMLID_275_" class="st2" d="M297.08,13.02l-5.33-6.44c0,0.21-0.16,0.32-0.45,0.34l-0.08,0.06l0.15,0.33v0.21
			c-3.96,3.45-7.63,6.35-11,8.72c-1.36,1.36-3.39,3.01-6.08,4.96l-9.88,8.54c-0.02,0.14-4.01,3.75-11.95,10.83
			c-2.93,2.74-4.39,4.2-4.39,4.36h0.21c5.62-1.3,10.71-2.33,15.31-3.1c4.08-3.66,6.14-5.55,6.16-5.65l9.88-8.54
			c2.69-1.95,4.72-3.6,6.08-4.96c3.38-2.37,7.04-5.27,11-8.72v-0.21l-0.18-0.39C296.89,13.37,297.08,13.25,297.08,13.02z"/>
		<path id="XMLID_276_" class="st2" d="M279.4,41.32v0.21h2.46c0.26,0.02,0.39,0.14,0.39,0.35v0.77c0,0.12-0.07,0.18-0.21,0.18
			l0.21,0.39v0.21c-0.68,0.66-2.26,2.61-4.75,5.87c-11.74,11.46-20.8,20.9-27.18,28.3l-6.08,6.82c-1.66,2.44-3.18,4.46-4.54,6.08
			h-0.21v-0.18l0.56-1.16h-0.18c0,0.21-0.26,0.47-0.77,0.77v-0.39h-0.18v0.77c-0.21,0-1.61,1.39-4.18,4.18h-0.18l-0.39-0.21
			l0.18,0.39v0.39c-0.19,0-0.5,0.37-0.95,1.13l-0.95,0.6v-0.21l0.6-0.77v-0.18h-0.21c0,0.28-0.76,1.23-2.29,2.85h0.39v0.21
			c-0.19,0-0.43,0.25-0.74,0.74h-0.21c0.14-0.8,0.59-1.62,1.34-2.46l-0.39-0.18c0,0.16-0.19,0.35-0.56,0.56v-0.21
			c0.26-0.4,0.39-0.72,0.39-0.95l-0.39-0.18c0,0.52-0.26,0.77-0.77,0.77l-0.95-0.21c-0.02,0.54-0.77,1.43-2.25,2.67
			c0,0.37-1.15,1.77-3.45,4.18c0,0.12-0.63,0.68-1.9,1.69c0-0.26-0.13-0.39-0.39-0.39c-0.07,0.4-0.32,0.66-0.74,0.77l5.33,6.44
			c0.33-0.09,0.54-0.27,0.66-0.52l0.24-0.19c0.13,0.05,0.22,0.15,0.22,0.33c1.27-1.01,1.9-1.57,1.9-1.69
			c2.3-2.41,3.45-3.81,3.45-4.18c0.86-0.72,1.47-1.32,1.83-1.81l1.75,1.98h0.21c0.3-0.49,0.55-0.74,0.74-0.74v-0.21h-0.28l0.33-0.46
			c0.6-0.65,1.05-1.17,1.36-1.56l0.11,0.13v0.21l0.95-0.6c0.45-0.75,0.76-1.13,0.95-1.13v-0.39l-0.18-0.39l0.39,0.21h0.18
			c2.58-2.79,3.97-4.18,4.18-4.18v-0.47l0.56,0.64h0.21c1.36-1.62,2.87-3.64,4.54-6.08l6.08-6.82c6.38-7.41,15.43-16.84,27.18-28.3
			c2.48-3.26,4.07-5.21,4.75-5.87v-0.21l-0.21-0.39c0.14,0,0.21-0.06,0.21-0.18v-0.77c0-0.14-0.08-0.22-0.19-0.28l0.02-0.01
			l-0.64-0.69c0.03-0.04,0.04-0.09,0.04-0.14c0-0.06-0.03-0.11-0.06-0.16l0.01,0L286.74,47c-0.01-0.01-0.02-0.02-0.03-0.03
			l-5.23-6.22C281.48,41.13,280.79,41.32,279.4,41.32z"/>
		<path id="XMLID_277_" class="st2" d="M272.16,46.84h-0.35c-2.13,0-7.58,0.82-16.35,2.46v0.18l-0.39-0.18h-0.18v0.39l-0.95-0.21
			c0,0.26-0.13,0.39-0.39,0.39h-0.39l-0.39-0.18c0,0.35-2.97,0.86-8.89,1.51c-1.24,0.38-3.66,0.88-7.24,1.51
			c0-0.19-0.25-0.43-0.74-0.74c0.23-0.14,0.42-0.21,0.56-0.21v-0.18c-0.04,0-0.07-0.01-0.11-0.01c-0.3-0.03-0.45-0.15-0.45-0.38
			v-0.95c0.02-0.09,0.49-0.59,1.32-1.43l0.18-0.54l0.15,0.2c0.8-0.79,1.88-1.84,3.26-3.16v-0.21c-0.84,0.42-1.98,1.31-3.41,2.67
			h-0.39l0.39-0.56c-0.26,0-0.39-0.13-0.39-0.39c0.28-0.31,0.59-0.63,0.92-0.97c0.82-3.96,1.31-6.16,1.47-6.59
			c0.09-2.34,0.14-4.2,0.14-5.55v-1.2l-0.14-0.28c0.09,0,0.14-0.05,0.14-0.14v-0.14l-0.14-0.28h0.14l-0.14-0.67v-1.09
			c0-0.54-0.22-3.38-0.67-8.51c-0.98-6.59-1.93-9.88-2.85-9.88l-4.74-5.97c0.73,1.11,1.48,4.24,2.25,9.41
			c0.44,5.13,0.67,7.97,0.67,8.51v1.09l0.14,0.67h-0.14l0.14,0.28v0.14c0,0.09-0.05,0.14-0.14,0.14l0.14,0.28v1.2
			c0,1.36-0.05,3.21-0.14,5.55c-0.19,0.49-0.82,3.39-1.9,8.68l-0.81,2.43c0,0.07,0.05,0.34,0.14,0.81c0,0.26-0.41,1.3-1.23,3.13
			l-4.04,7.98c-1.55,3.05-4.66,7.2-9.35,12.45c-5.48,4.92-9.27,7.63-11.36,8.12c-1.92,0.98-3.64,1.52-5.17,1.62
			c0,0.09-0.72,0.19-2.14,0.28c-2.84,0-5.43-1.29-7.76-3.85l4.16,4.99l0.01,0.01c0.03,0.05,0.06,0.11,0.09,0.16
			c2.6,3.42,5.54,5.13,8.82,5.13c1.43-0.09,2.14-0.19,2.14-0.28c1.52-0.09,3.25-0.63,5.17-1.62c2.09-0.49,5.87-3.2,11.36-8.12
			c4.69-5.25,7.8-9.4,9.35-12.45l4.04-7.98c0.33-0.74,0.59-1.34,0.79-1.83l4.83,5.1v0.03c0,0.21,0.13,0.33,0.38,0.37l0.18,0.19
			c-0.14,0-0.33,0.07-0.56,0.21c0.49,0.3,0.74,0.55,0.74,0.74c3.59-0.63,6-1.14,7.24-1.51c5.93-0.66,8.89-1.16,8.89-1.51l0.39,0.18
			h0.39c0.26,0,0.39-0.13,0.39-0.39l0.95,0.21v-0.39h0.18l0.39,0.18v-0.18c1.13-0.21,2.2-0.41,3.22-0.59
			C267.43,51.58,270.16,48.8,272.16,46.84z"/>
		<path id="XMLID_278_" class="st2" d="M281.48,12.07h0.21c0.05,0,0.23-0.13,0.56-0.39v0.21c-0.14,0.23-0.21,0.42-0.21,0.56
			l0.6-0.39h0.35c0.14,0,0.21,0.07,0.21,0.21c0.23-0.14,0.42-0.21,0.56-0.21v-0.18h-0.39v-0.39h0.21l0.35,0.18l0.91-0.64l-1.08-1.26
			v0.21L281.48,12.07z"/>
		<path id="XMLID_279_" class="st3" d="M248.05,44.94c0-0.16,1.46-1.62,4.39-4.36c7.95-7.08,11.93-10.69,11.95-10.83l9.88-8.54
			c2.69-1.95,4.72-3.6,6.08-4.96c3.38-2.37,7.04-5.27,11-8.72V7.32l-0.15-0.33l-0.02-0.05c0.04,0,0.07-0.01,0.11-0.01
			c0.3-0.02,0.45-0.13,0.45-0.34h-0.56l-6.33,4.46l-0.91,0.64l-0.35-0.18h-0.21v0.39h0.39v0.18c-0.14,0-0.33,0.07-0.56,0.21
			c0-0.14-0.07-0.21-0.21-0.21h-0.35l-0.6,0.39c0-0.14,0.07-0.33,0.21-0.56v-0.21c-0.33,0.26-0.52,0.39-0.56,0.39h-0.21l2.29-2.07
			V9.78c-0.21-0.37-0.4-0.56-0.56-0.56h-0.39c-0.89,0.54-1.34,0.93-1.34,1.16c-0.28,0-0.54-0.07-0.77-0.21
			c-0.26,0-1.32,0.82-3.2,2.46c-6.31,5.02-10.68,8.25-13.11,9.7c-4.48,3-10.04,7.75-16.7,14.24c-4.24,3.85-7.48,6.95-9.74,9.29
			c-0.33,0.34-0.63,0.66-0.92,0.97c0,0.26,0.13,0.39,0.39,0.39l-0.39,0.56h0.39c1.43-1.36,2.57-2.25,3.41-2.67v0.21
			c-1.39,1.33-2.46,2.37-3.26,3.16c-0.13,0.12-0.22,0.22-0.33,0.33c-0.84,0.83-1.3,1.33-1.32,1.43v0.95c0,0.23,0.16,0.35,0.45,0.38
			c0.04,0,0.07,0.01,0.11,0.01v0.18c-0.14,0-0.33,0.07-0.56,0.21c0.49,0.3,0.74,0.55,0.74,0.74c3.59-0.63,6-1.14,7.24-1.51
			c5.93-0.66,8.89-1.16,8.89-1.51l0.39,0.18h0.39c0.26,0,0.39-0.13,0.39-0.39l0.95,0.21V49.3h0.18l0.39,0.18V49.3
			c8.77-1.64,14.21-2.46,16.35-2.46h0.35c-2,1.96-4.73,4.74-8.15,8.3c-2.38,2.49-5.09,5.34-8.17,8.61
			c-11.88,13.01-18.47,20.53-19.76,22.57c-8.41,9.05-13.79,15.39-16.14,19.02v0.18c0.42-0.12,0.67-0.38,0.74-0.77
			c0.26,0,0.39,0.13,0.39,0.39c1.27-1.01,1.9-1.57,1.9-1.69c2.3-2.41,3.45-3.81,3.45-4.18c1.48-1.24,2.23-2.13,2.25-2.67l0.95,0.21
			c0.52,0,0.77-0.26,0.77-0.77l0.39,0.18c0,0.23-0.13,0.55-0.39,0.95v0.21c0.38-0.21,0.56-0.4,0.56-0.56l0.39,0.18
			c-0.75,0.84-1.2,1.66-1.34,2.46h0.21c0.3-0.49,0.55-0.74,0.74-0.74v-0.21h-0.39c1.52-1.62,2.29-2.57,2.29-2.85h0.21v0.18
			l-0.6,0.77v0.21l0.95-0.6c0.45-0.75,0.76-1.13,0.95-1.13v-0.39l-0.18-0.39l0.39,0.21h0.18c2.58-2.79,3.97-4.18,4.18-4.18v-0.77
			h0.18v0.39c0.52-0.3,0.77-0.56,0.77-0.77h0.18l-0.56,1.16v0.18h0.21c1.36-1.62,2.87-3.64,4.54-6.08l6.08-6.82
			c6.38-7.41,15.43-16.84,27.18-28.3c2.48-3.26,4.07-5.21,4.75-5.87v-0.21l-0.21-0.39c0.14,0,0.21-0.06,0.21-0.18v-0.77
			c0-0.21-0.13-0.33-0.39-0.35h-2.46v-0.21c1.38,0,2.07-0.19,2.07-0.56c0-0.3-0.45-0.49-1.34-0.56c-4.48,0-10.01,0.55-16.58,1.65
			c-4.6,0.77-9.69,1.8-15.31,3.1H248.05z"/>
	</g>
</g>
<g id="unmerged" class="st0">
	<g id="M_Shadow" class="st4">
		<path id="XMLID_74_" class="st2" d="M-391.59,214.23c0.26,0.14,0.46,0.21,0.6,0.21c0,0.84-1.25,3.08-3.76,6.71v0.39l0.39-0.18
			h0.21v0.39l-0.21,0.39h0.6c0-0.4,0.6-1.13,1.79-2.18v0.39c-1.08,1.81-1.81,2.87-2.18,3.2l0.21,0.39c0,0.96-0.2,1.55-0.6,1.76
			l0.18,0.42c-2.48,12.61-5.38,24.61-8.68,36l-1.2,4.96h-0.39v-0.42h-0.21l-0.18,1.2v0.21h0.18v-0.6h0.39v0.18
			c-0.26,0.87-0.39,1.46-0.39,1.79l-0.39-0.21h-0.21c-0.12,0.54-0.18,1.27-0.18,2.18h0.18c0,0.35-0.39,2.13-1.16,5.34h-0.21
			l-0.39-0.18v0.77h0.39c0,0.84-0.46,1.97-1.37,3.38v0.39h0.18l0.21-0.98h0.39c0,1.45-0.4,2.18-1.2,2.18v0.77h0.42l-0.21,1.41h-0.39
			v-0.39H-409v0.77h0.39l-0.18,1.37h-0.42l0.21-0.98v-0.18c-0.26,0-0.39,0.73-0.39,2.18h0.18v0.18c-0.21,1.59-0.47,2.39-0.77,2.39
			c0-0.14-0.07-0.21-0.21-0.21V290h0.42c-0.12,1.59-0.32,2.39-0.6,2.39h-0.21l0.21-0.81v-0.56h-0.21c0,0.52-0.13,1.23-0.39,2.14
			c0.26,0.05,0.39,0.19,0.39,0.42v0.6h-0.21l-0.39-0.21v0.77h0.39v0.42h-0.18l-0.39-0.21v0.81h0.39v0.39h-0.21l-0.39-0.21
			l-0.21,1.41v0.39h0.42v0.6l-0.81,0.77v0.81l0.39,0.6l-0.39,0.18c0-0.12-0.07-0.18-0.21-0.18c-0.26,2.02-0.52,3.13-0.77,3.34
			c0.12,0.26,0.18,0.46,0.18,0.6c-0.16,0-0.49,1.2-0.98,3.59c-0.63,0-1.49,2.3-2.57,6.89l-0.39-0.18h-0.21v0.6
			c0,0.35-0.13,0.75-0.39,1.2c0.26,0.12,0.46,0.18,0.6,0.18v0.6h-0.21l-0.39-0.21l-0.21,0.42c0,0.12,0.07,0.18,0.21,0.18
			c-1.01,3.77-1.79,5.95-2.36,6.54h-0.21l-0.21-0.39c0.35-1.71,0.62-2.57,0.81-2.57c-0.14-0.23-0.21-0.5-0.21-0.81h-0.18
			c0,0.3-0.07,0.57-0.21,0.81c0.14,0.23,0.21,0.42,0.21,0.56l-1.02,0.81h-0.18c-0.26,0-0.39-0.2-0.39-0.6
			c0.52-3.98,1.17-7.48,1.97-10.48v-0.21h-0.21c0,0.56-0.4,1.16-1.2,1.79h-0.18v-0.21c1.85-6.49,4.82-19.35,8.89-38.57
			c3.16-13.08,6.4-25.68,9.7-37.79c-7.24,10.78-14.04,21.6-20.39,32.45l-7.52,12.45v0.21c5.55-8.46,8.59-12.95,9.11-13.46h0.21
			c-1.66,3.87-5.36,10.34-11.07,19.41c0,0.19-1.2,1.37-3.59,3.55c-0.26,0-0.39-0.4-0.39-1.2h-0.21v2.6c0,0.73-0.53,1.38-1.58,1.97
			h-0.39v-1.79c-0.66-14.02-1.31-23.78-1.97-29.29h0.21c-0.28-1.13-0.62-4.82-1.02-11.07h-0.18l-10.3,23.17
			c-3.26,8.65-5.17,13.2-5.73,13.64l0.21,0.39c-1.03,2.37-2.03,3.55-2.99,3.55c0,0.63-0.4,1.3-1.2,2h-0.6c0-0.14,0.27-1,0.81-2.57
			c-0.63,0.77-1.16,1.16-1.58,1.16l-0.21-0.39c0.21,0,0.68-1.13,1.41-3.38c-0.33,0-0.53-0.26-0.6-0.77l0.18-0.39v-0.21h-0.18
			c-1.01,2.16-1.73,3.28-2.18,3.38l-0.21-0.42c3.3-10.27,8.52-22.85,15.64-37.76c1.88-3.94,3.53-7.11,4.96-9.53l0.39-0.18h0.18
			c0.21,0,0.41,0.2,0.6,0.6l-0.18,1.37c0.4,0,0.6,0.27,0.6,0.81c0.35-0.07,0.88-1.27,1.58-3.59l0.39-0.18h0.21l0.39,0.18
			c0-1.17,0.4-1.76,1.2-1.76c0-1.73,0.19-2.6,0.56-2.6l1.2,0.21l0.81-0.6h1.16c0.35,0,0.62,0.6,0.81,1.79l-0.21,0.39
			c0,0.26,0.07,0.39,0.21,0.39l-0.21,1.02c0.14,4.97,0.21,8.52,0.21,10.65c0,0.07,0.07,0.34,0.21,0.81h-0.21l0.21,0.39v24.54h0.18
			c0-0.3,0.2-0.7,0.6-1.2v-0.18c-0.4-0.44-0.6-0.79-0.6-1.02l6.33-10.27v-0.6c-0.26,0-0.39-0.07-0.39-0.21
			c7.12-12,16.23-25.45,27.32-40.36c0-0.12,1.58-2.16,4.75-6.12c0.4-0.19,1.51-1.57,3.34-4.15l0.42,0.18L-391.59,214.23z"/>
		<path id="XMLID_80_" class="st2" d="M-460.04,283.88c0,0.3-0.46,1.49-1.37,3.55v0.21h0.18c0-0.28,0.53-1.53,1.58-3.76H-460.04z"/>
		<path id="XMLID_77_" class="st2" d="M-431.36,277.73c0,0.45-0.86,1.77-2.57,3.97v0.81h0.21c0.21-0.68,1.07-2.2,2.57-4.57v-0.21
			H-431.36z"/>
		<path id="XMLID_79_" class="st2" d="M-431.36,282.9c0,0.14-0.07,0.34-0.21,0.6v0.18h0.21c0-0.14,0.07-0.34,0.21-0.6v-0.18H-431.36
			z"/>
		<rect id="XMLID_78_" x="-407.63" y="278.15" class="st2" width="0.21" height="0.77"/>
		<rect id="XMLID_75_" x="-404.46" y="264.9" class="st2" width="0.21" height="0.98"/>
		<path id="XMLID_6_" class="st2" d="M-405.76,227.94l-5.02,17.13l-2.18,19.17l-7.17,23.04l-4.13,20.33l-2.44,8.43l1.29,1.19v0.57
			l4.01,4.59l0.84-1.53l4.42-12.08l2.38-10.33l2.98-15l4.23-16.29l3.88-16.04l7.25-23.96l0.08-6.96l3.74-5.96l-4.74-6.23
			l-26.68,40.68l-10.92,14.69l-1.21-4.43l0.25-15.97l0.15-4.42l-5.09-6.33l-2.97,4.25l-4.17,4.04l-1.01-2.25l-1.16,0.66
			c0,0-1.42,5.71-1.46,5.88c-0.04,0.17-8.58,21.87-8.58,21.87l-5.82,17.83l-2.6-3.32l-1.94,4.36l2.36,3.16l5.33,6.44l9.41-25.35
			l8.46-19.29l1.21,32.37l-0.86,5.24l5.33,6.44l2.65-8.63l9.46-14.46l9.66-17.25l3.16-0.87l3.76-15.82L-405.76,227.94z"/>
		<polygon id="XMLID_25_" class="st2" points="-421.27,268.23 -423.03,265.88 -433.03,283.28 -429.8,282.9 		"/>
		<polygon id="XMLID_21_" class="st2" points="-391.84,214.17 -391.42,214.32 -391.84,215.12 -392.17,214.54 		"/>
		<polygon id="XMLID_48_" class="st2" points="-391.98,219.97 -396.41,214.64 -396.23,223.29 -393.59,222.43 		"/>
	</g>
	<g id="H_Shadow" class="st4">
		<path id="XMLID_9_" class="st2" d="M-271.26,225.38c0.56,0,0.95,0.26,1.16,0.77v0.21c-4.78,10.36-9.79,20.44-15.01,30.23h0.21
			c0.07,0,0.9-0.06,2.5-0.18c0,0.19,0.19,0.39,0.56,0.6c0.56-0.28,2.74-0.62,6.54-1.02c0,1.2-1.41,1.79-4.22,1.79
			c-0.02,0.07-1.44,0.41-4.25,1.02c0.26,0.42,0.39,0.82,0.39,1.2c1.41-0.28,2.44-0.42,3.09-0.42l0.39,0.6v0.6
			c0,0.42-2.82,1.29-8.47,2.6c-3.7,8.11-7.48,17.19-11.32,27.25l-0.39,0.21h-0.21c-0.26,0-0.39-0.13-0.39-0.39l1.37-3.8v-0.21h-0.21
			c-1.45,3.87-2.34,5.86-2.67,5.98h-0.39c-0.26,0-0.39-0.13-0.39-0.39c0.84-2.44,2.45-6.28,4.82-11.53v-0.21h-0.21
			c-1.05,3.05-1.83,4.57-2.32,4.57h-0.35c-0.96,0-1.48-0.2-1.55-0.6l8.26-19.51c-1.38,0.28-2.92,0.68-4.61,1.2
			c-0.26-0.12-0.46-0.18-0.6-0.18c0,0.3-2.05,0.9-6.15,1.79c-1.78,0.45-3,0.84-3.66,1.2c-0.75,0-1.25,0.13-1.51,0.39h-0.39
			l-0.39-0.21c0,0.52-1.73,1.05-5.2,1.62c0,0.21-0.76,0.54-2.29,0.98c-6.28,15.33-9.42,23.81-9.42,25.45l-0.39,0.21h-0.39
			c-0.26,0-0.39-0.13-0.39-0.39c0.38-1.66,0.82-3.26,1.34-4.78c-0.14,0.02-1.49,3.14-4.04,9.35c-0.63,1.85-1.14,2.78-1.51,2.78
			l-0.21-0.39c0.14-0.26,0.21-0.46,0.21-0.6l-0.39,0.21c-0.26,0-0.39-0.14-0.39-0.42c0-0.21,0.13-0.61,0.39-1.2l-0.39-0.18h-0.39
			c0,0.52-0.39,0.77-1.16,0.77c1.76-6.05,4.84-14.2,9.25-24.47c-0.33,0-0.66-0.13-0.98-0.39c0.4-1.57,0.84-2.84,1.34-3.8h-0.18
			c-0.16,0-2.47,0.6-6.93,1.79l-0.77-1.2c0.35-0.3,1-0.57,1.93-0.81v-0.18c-0.37,0-0.69-0.27-0.95-0.81v-0.18
			c0.12-0.37,0.82-0.84,2.11-1.41c0-0.8,0.52-1.2,1.55-1.2v-0.21c-0.52,0-0.77-0.33-0.77-0.98c1.27-0.66,2.23-0.98,2.88-0.98
			c-0.26-0.33-0.39-0.53-0.39-0.6v-0.21c1.05-0.75,2.91-1.48,5.55-2.18c4.94-11.41,8.28-18.25,10.02-20.5h0.35
			c0.26,0.02,0.39,0.15,0.39,0.39v0.39c-0.75,1.92-1.32,3.19-1.72,3.8v0.21h0.21c0.54-1.34,0.91-2,1.13-2
			c0.26,0.05,0.39,0.18,0.39,0.39c0,0.26-1.92,3.91-5.77,10.97c-0.73,1.15-1.62,2.87-2.67,5.17v0.18h0.18
			c0-0.21,3.47-6.57,10.41-19.09c0.4-1.05,1.03-1.58,1.9-1.58c0-0.89,0.77-1.43,2.32-1.62l0.18,0.42v0.18
			c0,0.82-2.11,5.2-6.33,13.15l-3.48,7.56h0.21c5.46-1.45,13.41-3.11,23.84-4.96c0.63-1.78,3.96-8.75,9.98-20.92
			c1.88-4.38,3.41-7.37,4.61-8.96h0.21c0.26,0,0.39,0.27,0.39,0.81h0.18c0-0.63,0.77-1.89,2.32-3.76h0.18l0.6,0.39L-271.26,225.38z"
			/>
		<path id="XMLID_113_" class="st2" d="M-328.15,289.05c0,0.14-0.07,0.34-0.21,0.6v0.18h0.21c0-0.14,0.06-0.34,0.18-0.6v-0.18
			H-328.15z"/>
		<path id="XMLID_112_" class="st2" d="M-327.76,287.85c0,0.14-0.07,0.34-0.21,0.6v0.39h0.21c0-0.3,0.06-0.57,0.18-0.81v-0.18
			H-327.76z"/>
		<path id="XMLID_111_" class="st2" d="M-294.54,266.55c0,0.14-0.06,0.34-0.18,0.6v0.21h0.18c0-0.14,0.07-0.34,0.21-0.6v-0.21
			H-294.54z"/>
		<path id="XMLID_110_" class="st2" d="M-293.94,265.35c0,0.14-0.07,0.34-0.21,0.6h0.21l0.18-0.39v-0.21H-293.94z"/>
		<path id="XMLID_109_" class="st2" d="M-293.76,264.97v0.18h0.21c0.75-1.57,1.13-2.5,1.13-2.78
			C-292.64,262.36-293.08,263.23-293.76,264.97z"/>
		<path id="XMLID_108_" class="st2" d="M-285.29,246.05c-2.18,4.57-3.53,7.56-4.04,8.96v0.18c0.19-0.05,1.66-3.09,4.43-9.14H-285.29
			z"/>
		<path id="XMLID_107_" class="st2" d="M-284.9,245.24v0.6h0.18c0-0.14,0.07-0.34,0.21-0.6H-284.9z"/>
		<polygon id="XMLID_5_" class="st2" points="-275.75,219.26 -270.31,225.79 -274.27,230.68 -282.7,249.24 -281.3,250.27 
			-280.64,249.56 -275.31,256 -282.23,257.93 -286.86,259.77 -293.52,268.95 -296.08,277.93 -300.17,286.96 -302.97,292.03 
			-308.22,285.87 -305.95,281.15 -307.92,277.83 -301.98,268.55 -300.73,264.74 -307.64,267.14 -320.42,270.9 -326.48,285.81 
			-334.86,300.87 -336.23,302.37 -341.57,295.93 -334.48,281.09 -332.92,274.99 -334.51,274.31 -339.07,269.07 -335.2,265.96 
			-325.45,259.74 -326.39,256.9 -318.05,238.74 -317.26,237.76 -315.27,240.59 -311.45,235.52 -310.8,234.83 -305.47,241.27 
			-311.17,251.99 -312.67,255.37 -295.61,252.62 -287.12,237.15 -278.89,222.34 		"/>
		<polygon id="XMLID_24_" class="st2" points="-280.82,222.27 -281.37,221.4 -281.78,222.19 -281.44,222.75 		"/>
		<polygon id="XMLID_29_" class="st2" points="-329.69,296.81 -330.78,294.65 -328.15,289.82 -328.16,293.32 		"/>
		<polygon id="XMLID_38_" class="st2" points="-300.69,290.45 -303.17,287.32 -296.92,281.45 -299.48,288.41 		"/>
		<polyline id="XMLID_39_" class="st2" points="-234.39,313.55 -238.39,309.02 -231.93,307.46 -230.94,308.65 -234.39,313.55 		"/>
		<polygon id="XMLID_70_" class="st2" points="-280.3,259.58 -284.34,254.73 -285.92,261.44 		"/>
	</g>
	<g id="T_Shadow" class="st4">
		<path id="XMLID_26_" class="st2" d="M-274.53,221.21l-4.95,1.32l-0.46-0.25c-18.19,3.07-29.64,5.25-34.35,6.54
			c-10.38,2.18-15.57,3.46-15.57,3.83c0,0.49-0.9,3.15-2.71,7.98c-5.63,13.73-10.9,27.98-15.82,42.75
			c-2.72,8.74-4.45,13.65-5.2,14.73c0,0.16,0.07,0.25,0.21,0.25c0,0.35-0.67,2.29-2,5.8l-0.46-0.25l-0.91,1.44h-0.21
			c0.45-1.99,0.82-3.2,1.13-3.62V301c-0.75,0-1.13-0.32-1.13-0.95l4.29-12.34l-0.25-1.44c0.3-1.03,0.46-1.59,0.46-1.69v-0.25h-0.21
			c-0.82,2.91-1.58,4.36-2.29,4.36h-0.21c0.14-1.29,0.36-1.93,0.67-1.93c-0.14-0.3-0.21-0.55-0.21-0.74l7.45-22.68l-0.25-0.49
			c3.98-9.77,7.45-19.28,10.41-28.51h-0.21l-14.7,3.87c-0.54-0.14-0.84-0.21-0.91-0.21c-1.31,0.47-2.29,0.7-2.92,0.7l-0.25-0.49
			v-0.7l8.82-1.93v-0.25h-0.46c-2.95,0.63-4.61,0.95-4.96,0.95c0-0.14-0.08-0.21-0.25-0.21c0,0.3-0.15,0.46-0.46,0.46l-0.42-0.25
			c0,0.33-0.15,0.49-0.46,0.49l-0.46-0.25l-1.37,0.25c-0.14,0-0.21-0.08-0.21-0.25c-2.6,0.82-4.03,1.23-4.29,1.23l-0.25-0.49v-0.25
			c0.12-0.37,1.17-0.86,3.16-1.44c0-0.87,2.48-1.91,7.45-3.13v-0.25h-0.67c-0.54,0.3-1.14,0.46-1.79,0.46
			c-0.3,0-0.46-0.15-0.46-0.46v-0.25c0-0.66,9.71-2.75,29.14-6.29c3.87-0.8,6.5-1.59,7.91-2.39c8.18-1.62,15.33-2.91,21.45-3.87
			v0.25c0.44-0.33,2.71-0.74,6.79-1.23v0.25l-0.21,0.49h0.21l0.91-0.98h0.67c0,0.19,0.08,0.43,0.25,0.74
			c-0.16,0-0.25,0.08-0.25,0.25l2.5-0.49v0.25c0.47-0.28,3.7-0.93,9.7-1.93c0.05,0.33,0.2,0.49,0.46,0.49
			c0-0.61,1.96-1.02,5.87-1.23c0.96-0.26,4.13-0.66,9.49-1.2v0.25l0.46-0.25h0.21v0.25c0,0.52-0.9,0.83-2.71,0.95
			c0-0.16-0.07-0.25-0.21-0.25c0,0.33-0.15,0.49-0.46,0.49h-0.67l-5.87,0.74v0.25c0.75,0,1.13,0.15,1.13,0.46v0.25l0.46-0.25h0.67
			v0.49c-1.5,0.49-4.97,1.14-10.41,1.93l-0.21,0.49l1.13-0.25L-274.53,221.21z"/>
		<path id="XMLID_104_" class="st2" d="M-351.8,281.7c-0.28,0.87-0.42,1.35-0.42,1.44v0.25h0.21c0-0.28,0.15-0.76,0.46-1.44v-0.25
			H-351.8z"/>
		<path id="XMLID_103_" class="st2" d="M-351.35,280.26c0,0.35-0.07,0.67-0.21,0.95v0.25h0.21c0-0.16,0.08-0.41,0.25-0.74v-0.46
			H-351.35z"/>
		<path id="XMLID_102_" class="st2" d="M-350.43,277.59c0,0.16-0.08,0.41-0.25,0.74v0.46h0.25c0-0.35,0.07-0.67,0.21-0.95v-0.25
			H-350.43z"/>
		<rect id="XMLID_101_" x="-347.06" y="235.08" class="st2" width="0.91" height="0.25"/>
		<polygon id="XMLID_100_" class="st2" points="-345.93,234.84 -345.93,235.08 -345.47,235.08 -344.1,234.84 -344.1,234.59 
			-344.56,234.59 		"/>
		<path id="XMLID_98_" class="st2" d="M-334.4,229.04v0.25h0.25l1.34-0.25v-0.21h-0.67C-333.74,228.97-334.05,229.04-334.4,229.04z"
			/>
		<polygon id="XMLID_99_" class="st2" points="-330.99,232.66 -332.36,236.52 -332.36,237.02 -332.15,237.02 -330.78,232.9 
			-330.78,232.66 		"/>
		<rect id="XMLID_97_" x="-329.41" y="227.84" class="st2" width="0.88" height="0.25"/>
		<path id="XMLID_96_" class="st2" d="M-282.86,217.72v0.46h-0.7c-0.4,0-0.84,0.16-1.34,0.49l-0.25-0.49
			C-284.44,217.87-283.68,217.72-282.86,217.72z"/>
		<path id="XMLID_27_" class="st2" d="M-262.92,208.61l5.33,6.44l-0.88,0.69l-4.83,0.52l-9.27,1.94l-15.31,3.61l-18.65,3.6
			l-25.04,6.81l-4.87,11.23c0,0-4.9,11.9-4.88,12.15c0.02,0.25-5.08,12.71-5.08,12.71l-5.15,19.98l-3.82,13.88l-1.59,3.21
			l-5.33-6.44c0,0,2.09-5.82,2.11-5.9c0.02-0.08,2.11-7.81,2.11-7.81l-2.43-2.95l6.73-15.23l7.33-18.6l4.31-11.83l-4.31-0.63
			l-9.08,2.42l-3.27,0.96l-1.79-1.58l-5.33-6.44l8.83-3.86l-1.24-1.33l4.61-1.35l21-3.6l23.71-2.98l32.25-6.21l4.77-2.1l8.52-0.67
			L-262.92,208.61z"/>
		<polygon id="XMLID_66_" class="st2" points="-265.25,217.93 -269.23,213.6 -269.23,218.19 -266.86,218.66 		"/>
		<polygon id="XMLID_67_" class="st2" points="-422.28,323.85 -424.7,320.9 -421.3,319.21 -420.8,321.22 		"/>
		<polygon id="XMLID_69_" class="st2" points="-418.91,316.72 -423.27,311.09 -421.43,317.8 		"/>
	</g>
	<g id="Y_Shadow" class="st4">
		<path id="XMLID_19_" class="st2" d="M-394.11,311.59c0.56-2.63,1.14-3.57,1.14-4.15l10.34-20.88
			c-6.89-21.47-10.34-33.13-10.34-34.98l0.6-0.28c0.75,1.69,1.13,2.74,1.13,3.16h0.28v-0.56c-1.45-7.24-2.69-11.54-3.73-12.9
			l0.6-0.28c1.24,0,3.15,5.16,5.73,15.47h0.28c0-0.59,0.19-0.88,0.56-0.88c-2.86-9.59-4.29-14.93-4.29-16.03
			c1.24,1.62,2.39,4.1,3.45,7.45c1.01,1.05,2.25,5.54,3.73,13.46l5.73,18.63c0.37-0.3,4.38-7.28,12.02-20.92l4.57-6.33v1.44h0.28
			c0-1.57,7.64-13.61,22.92-36.11c1.48-1.9,2.34-2.85,2.6-2.85h0.28l-6.61,10.3h0.28c0.4-1.01,1.55-2.53,3.45-4.57v0.28
			c-0.49,1.27-2.2,3.94-5.13,8.02v0.28c1.5-1.31,3.12-3.41,4.85-6.29h0.56v0.28l-5.13,7.73c0.19,0.35,0.28,0.74,0.28,1.16
			c-2.11,3.05-10.9,18.13-26.37,45.25c-12.94,24.02-21.15,38.73-24.64,44.12c-0.47,0.4-0.75,0.6-0.84,0.6
			c0-0.21-0.09-0.32-0.28-0.32l3.45-6.01v-0.28h-0.32c0,0.77-0.28,1.16-0.84,1.16l-0.28-0.6c0.38,0,0.56-0.19,0.56-0.56v-0.28
			c-0.33,0-1,0.48-2,1.44L-394.11,311.59z"/>
		<path id="XMLID_84_" class="st2" d="M-390.68,255.9v0.56c0.21,0.33,0.32,0.72,0.32,1.16h0.28v-0.6c-0.19-0.33-0.28-0.7-0.28-1.13
			H-390.68z"/>
		<path id="XMLID_85_" class="st2" d="M-390.08,257.9v0.28c0.56,2.02,0.84,3.26,0.84,3.73h0.28v-0.88
			c-0.56-1.43-0.84-2.47-0.84-3.13H-390.08z"/>
		<path id="XMLID_16_" class="st2" d="M-341.56,207.68l5.33,6.38l-9.16,13.34l-15.04,28.29l-10.25,16.33c0,0-8.71,16.08-8.75,16.67
			c-0.04,0.58-6.38,13.38-6.38,13.38l-4.46,8.79l-2.83,6.46l-2.72,3.58l-5.05-6.06l5.32-10.27l10.96-25.38l-4.37-7.25l-4.96-18.71
			l-3.96-7.38l0.18-0.94l2.29,2.57l-3.85-13.11l6.56,10.86l-4.43-12.34l5.33,6.38l4.97,14.88l4.54,17.42l13.33-21.79l7.5-8.38
			l9.67-17l3.08-6.71L-341.56,207.68z"/>
		<polygon id="XMLID_20_" class="st2" points="-400.58,309.39 -398.92,311.59 -396.83,307.74 -399.11,307.46 		"/>
		<polyline id="XMLID_68_" class="st2" points="-367.64,245.2 -365.11,248.9 -368.54,249.62 -367.64,245.2 		"/>
	</g>
	<g id="O_Shadow" class="st4">
		<polygon id="XMLID_47_" class="st2" points="-239.16,212.79 -238.81,212.95 -233.83,219.23 -232.07,224.09 -231.13,233.59 
			-230.94,246.9 -233.55,257.5 -236.34,264.88 -241.09,273.44 -246.51,280.46 -252.17,285.52 -260.98,290.42 -268.55,291.37 
			-272.96,288.75 -275.1,287.16 -280.33,280.89 -281.69,268.32 -277.59,254.42 -270.63,243.55 -265.21,237.42 -256.09,230.11 
			-247.36,225.84 -246.05,225.62 -240.72,232.06 -255.21,241.48 -264.46,252.57 -271.78,263.59 -273.1,277.86 -271.48,280.77 
			-260.68,279.36 -249.78,267.74 -243.38,257.61 -238.44,242.38 -238.44,230.75 -238.63,214.27 		"/>
		<path id="XMLID_115_" class="st2" d="M-236.81,217.05h0.14c0.96,0,1.86,1.54,2.71,4.61h0.28c-0.19-0.87-0.28-1.36-0.28-1.48v-0.7
			l0.14-0.25c0.91,0,1.86,3.29,2.85,9.88c0.44,5.13,0.67,7.97,0.67,8.51v1.09l0.14,0.67h-0.14l0.14,0.28v0.14
			c0,0.09-0.05,0.14-0.14,0.14l0.14,0.28v1.2c0,1.36-0.05,3.21-0.14,5.55c-0.19,0.49-0.82,3.39-1.9,8.68l-0.81,2.43
			c0,0.07,0.05,0.34,0.14,0.81c0,0.26-0.41,1.3-1.23,3.13l-4.04,7.98c-1.55,3.05-4.66,7.2-9.35,12.45
			c-5.48,4.92-9.27,7.63-11.36,8.12c-1.92,0.98-3.64,1.52-5.17,1.62c0,0.09-0.72,0.19-2.14,0.28c-3.28,0-6.22-1.71-8.82-5.13
			c-1.52-2.3-2.29-5.24-2.29-8.82c0-7.19,2.17-14.41,6.5-21.66c1.41-2.74,4.2-6.45,8.37-11.11c5.41-5.37,10.38-9.25,14.91-11.64
			c2.98-1.43,4.96-2.14,5.94-2.14h0.56l0.28,0.11c0,0.73-0.46,1.23-1.37,1.51c-2.44,1.55-3.66,2.4-3.66,2.57
			c-0.26,0.49-2.06,1.98-5.41,4.46c0,0.14-2.21,2.48-6.64,7.03c-5.06,5.91-8.17,10.11-9.32,12.62c-2.63,4.2-3.94,7.66-3.94,10.41
			c-0.07,0-0.25,1.54-0.53,4.61v5.03l0.25,0.39v0.67c0,1.9,1.09,3.21,3.27,3.94l2.43,0.95c0.09,0,0.14-0.05,0.14-0.14
			c0.73,0.19,1.31,0.28,1.76,0.28c1.85,0,3.75-0.54,5.7-1.62c7.36-4.22,13.14-10.45,17.33-18.7c2.72-4.1,4.75-9.34,6.08-15.71
			c0.35-1.66,0.53-3.11,0.53-4.32v-1.62l-0.14-0.81c0.09-0.16,0.14-0.39,0.14-0.67v-0.95h-0.14c-0.38,5.58-0.73,8.78-1.05,9.6
			c0,0.73-0.09,1.09-0.28,1.09c0,0.09,0.05,0.14,0.14,0.14c-1.48,5.48-3.64,10.27-6.5,14.34c-2.16,3.26-4.28,6.06-6.36,8.4
			c-0.3,0.16-1.25,1.07-2.85,2.71h-0.14v-0.14c7.1-8.74,11.61-15.88,13.54-21.41c1.9-5.86,2.85-11.09,2.85-15.68v-3.41
			c0-2.23-0.13-4.62-0.39-7.17c0-0.09,0.05-0.14,0.14-0.14c-0.28-5.86-0.74-9.42-1.37-10.69c-0.19-0.19-0.41-0.87-0.67-2.04
			C-237.06,217.22-236.93,217.05-236.81,217.05z"/>
		<path id="XMLID_121_" class="st2" d="M-273.48,264.02l0.11,0.28c-0.89,2.25-1.38,3.38-1.48,3.38c0.09,0.19,0.14,0.33,0.14,0.42
			c-0.23,0.7-0.46,1.2-0.67,1.48l0.14,0.28c-0.28,0.91-0.6,2.63-0.95,5.13h0.25c0-0.42,0.46-2.13,1.37-5.13
			c0-1.71,1.03-4.83,3.09-9.35h-0.11c-0.42,0.33-0.88,1.15-1.37,2.46L-273.48,264.02z"/>
		<path id="XMLID_126_" class="st2" d="M-273.1,287.32v0.28c0.19,0,0.55,0.35,1.09,1.05c1.55,1.1,2.94,1.65,4.18,1.65
			c0.09,0,0.46,0.04,1.09,0.11h0.14v-0.11c-2.41-0.47-4.31-1.15-5.7-2.04C-272.71,287.64-272.98,287.32-273.1,287.32z"/>
		<path id="XMLID_124_" class="st2" d="M-272.81,285.43c0,0.61,0.81,1.34,2.43,2.18h0.14C-270.25,287.49-271.1,286.76-272.81,285.43
			z"/>
		<path id="XMLID_128_" class="st2" d="M-270.67,290.42v0.14c1.43,0.63,3.06,0.95,4.89,0.95h0.42v-0.14c-0.38,0-0.56-0.05-0.56-0.14
			c-0.09,0-0.14,0.05-0.14,0.14c-2.3-0.26-3.79-0.57-4.46-0.95H-270.67z"/>
		<path id="XMLID_129_" class="st2" d="M-264.98,291.23v0.14h0.42l1.34-0.14v-0.11h-0.67
			C-264.38,291.19-264.74,291.23-264.98,291.23z"/>
		<polygon id="XMLID_2_" class="st2" points="-241.4,210.82 -239.26,214.03 -238.78,215.51 -239.94,215.51 		"/>
		<polygon id="XMLID_127_" class="st2" points="-264.83,288.27 -264.83,288.41 -264.17,288.41 -262.65,287.99 -262.65,287.85 
			-262.8,287.85 		"/>
		<path id="XMLID_125_" class="st2" d="M-255.62,285.43l-0.67,0.53h0.14c0.4-0.26,0.67-0.39,0.81-0.39v-0.14H-255.62z"/>
		<path id="XMLID_118_" class="st2" d="M-253.73,238.98v0.14h0.14c2.98-1.55,5.14-2.81,6.5-3.8l3.66-2.04v-0.14h-0.28
			c-3.54,1.64-6.83,3.59-9.88,5.84H-253.73z"/>
		<path id="XMLID_123_" class="st2" d="M-248.73,279.73v0.14c0.77-0.3,2.13-1.79,4.08-4.46l2.18-3.13h-0.14
			C-244.09,274.5-246.13,276.99-248.73,279.73z"/>
		<path id="XMLID_122_" class="st2" d="M-241.67,270.66c0,0.16-0.14,0.39-0.42,0.67v0.14c0.12,0,0.29-0.22,0.53-0.67v-0.14H-241.67z
			"/>
		<path id="XMLID_116_" class="st2" d="M-235.87,218.66v0.42c0.19,0.21,0.28,0.53,0.28,0.95h0.28
			C-235.42,219.12-235.61,218.66-235.87,218.66z"/>
		<path id="XMLID_117_" class="st2" d="M-233.69,223.41v0.28c0.77,5.32,1.31,7.98,1.62,7.98c-0.45-3.7-0.94-6.46-1.48-8.26H-233.69z
			"/>
		<path id="XMLID_120_" class="st2" d="M-231.93,238.84l-0.28,3.8v0.14h0.14l0.14-0.7v-1.2l0.14-0.81c0-0.09-0.05-0.14-0.14-0.14
			l0.14-0.67v-0.42H-231.93z"/>
		<rect id="XMLID_119_" x="-232.07" y="236.81" class="st2" width="0.14" height="1.23"/>
	</g>
	<g id="M" class="st4">
		<path id="XMLID_71_" class="st3" d="M-396.93,207.8c0.26,0.14,0.46,0.21,0.6,0.21c0,0.84-1.25,3.08-3.76,6.71v0.39l0.39-0.18h0.21
			v0.39l-0.21,0.39h0.6c0-0.4,0.6-1.13,1.79-2.18v0.39c-1.08,1.81-1.81,2.87-2.18,3.2l0.21,0.39c0,0.96-0.2,1.55-0.6,1.76l0.18,0.42
			c-2.48,12.61-5.38,24.61-8.68,36l-1.2,4.96h-0.39v-0.42h-0.21l-0.18,1.2v0.21h0.18v-0.6h0.39v0.18c-0.26,0.87-0.39,1.46-0.39,1.79
			l-0.39-0.21h-0.21c-0.12,0.54-0.18,1.27-0.18,2.18h0.18c0,0.35-0.39,2.13-1.16,5.34h-0.21l-0.39-0.18v0.77h0.39
			c0,0.84-0.46,1.97-1.37,3.38v0.39h0.18l0.21-0.98h0.39c0,1.45-0.4,2.18-1.2,2.18v0.77h0.42l-0.21,1.41h-0.39v-0.39h-0.21v0.77
			h0.39l-0.18,1.37h-0.42l0.21-0.98v-0.18c-0.26,0-0.39,0.73-0.39,2.18h0.18v0.18c-0.21,1.59-0.47,2.39-0.77,2.39
			c0-0.14-0.07-0.21-0.21-0.21v0.39h0.42c-0.12,1.59-0.32,2.39-0.6,2.39h-0.21l0.21-0.81v-0.56h-0.21c0,0.52-0.13,1.23-0.39,2.14
			c0.26,0.05,0.39,0.19,0.39,0.42v0.6h-0.21l-0.39-0.21v0.77h0.39v0.42h-0.18l-0.39-0.21v0.81h0.39v0.39h-0.21l-0.39-0.21
			l-0.21,1.41v0.39h0.42v0.6l-0.81,0.77v0.81l0.39,0.6l-0.39,0.18c0-0.12-0.07-0.18-0.21-0.18c-0.26,2.02-0.52,3.13-0.77,3.34
			c0.12,0.26,0.18,0.46,0.18,0.6c-0.16,0-0.49,1.2-0.98,3.59c-0.63,0-1.49,2.3-2.57,6.89l-0.39-0.18h-0.21v0.6
			c0,0.35-0.13,0.75-0.39,1.2c0.26,0.12,0.46,0.18,0.6,0.18v0.6h-0.21l-0.39-0.21l-0.21,0.42c0,0.12,0.07,0.18,0.21,0.18
			c-1.01,3.77-1.79,5.95-2.36,6.54h-0.21l-0.21-0.39c0.35-1.71,0.62-2.57,0.81-2.57c-0.14-0.23-0.21-0.5-0.21-0.81h-0.18
			c0,0.3-0.07,0.57-0.21,0.81c0.14,0.23,0.21,0.42,0.21,0.56l-1.02,0.81h-0.18c-0.26,0-0.39-0.2-0.39-0.6
			c0.52-3.98,1.17-7.48,1.97-10.48v-0.21h-0.21c0,0.56-0.4,1.16-1.2,1.79h-0.18v-0.21c1.85-6.49,4.82-19.35,8.89-38.57
			c3.16-13.08,6.4-25.68,9.7-37.79c-7.24,10.78-14.04,21.6-20.39,32.45l-7.52,12.45v0.21c5.55-8.46,8.59-12.95,9.11-13.46h0.21
			c-1.66,3.87-5.36,10.34-11.07,19.41c0,0.19-1.2,1.37-3.59,3.55c-0.26,0-0.39-0.4-0.39-1.2h-0.21v2.6c0,0.73-0.53,1.38-1.58,1.97
			h-0.39v-1.79c-0.66-14.02-1.31-23.78-1.97-29.29h0.21c-0.28-1.13-0.62-4.82-1.02-11.07h-0.18l-10.3,23.17
			c-3.26,8.65-5.17,13.2-5.73,13.64l0.21,0.39c-1.03,2.37-2.03,3.55-2.99,3.55c0,0.63-0.4,1.3-1.2,2h-0.6c0-0.14,0.27-1,0.81-2.57
			c-0.63,0.77-1.16,1.16-1.58,1.16l-0.21-0.39c0.21,0,0.68-1.13,1.41-3.38c-0.33,0-0.53-0.26-0.6-0.77l0.18-0.39v-0.21h-0.18
			c-1.01,2.16-1.73,3.28-2.18,3.38l-0.21-0.42c3.3-10.27,8.52-22.85,15.64-37.76c1.88-3.94,3.53-7.11,4.96-9.53l0.39-0.18h0.18
			c0.21,0,0.41,0.2,0.6,0.6l-0.18,1.37c0.4,0,0.6,0.27,0.6,0.81c0.35-0.07,0.88-1.27,1.58-3.59l0.39-0.18h0.21l0.39,0.18
			c0-1.17,0.4-1.76,1.2-1.76c0-1.73,0.19-2.6,0.56-2.6l1.2,0.21l0.81-0.6h1.16c0.35,0,0.62,0.6,0.81,1.79l-0.21,0.39
			c0,0.26,0.07,0.39,0.21,0.39l-0.21,1.02c0.14,4.97,0.21,8.52,0.21,10.65c0,0.07,0.07,0.34,0.21,0.81h-0.21l0.21,0.39v24.54h0.18
			c0-0.3,0.2-0.7,0.6-1.2v-0.18c-0.4-0.44-0.6-0.79-0.6-1.02l6.33-10.27v-0.6c-0.26,0-0.39-0.07-0.39-0.21
			c7.12-12,16.23-25.45,27.32-40.36c0-0.12,1.58-2.16,4.75-6.12c0.4-0.19,1.51-1.57,3.34-4.15l0.42,0.18L-396.93,207.8z"/>
		<path id="XMLID_13_" class="st3" d="M-465.38,277.44c0,0.3-0.46,1.49-1.37,3.55v0.21h0.18c0-0.28,0.53-1.53,1.58-3.76H-465.38z"/>
		<path id="XMLID_12_" class="st3" d="M-436.69,271.29c0,0.45-0.86,1.77-2.57,3.97v0.81h0.21c0.21-0.68,1.07-2.2,2.57-4.57v-0.21
			H-436.69z"/>
		<path id="XMLID_11_" class="st3" d="M-436.69,276.46c0,0.14-0.07,0.34-0.21,0.6v0.18h0.21c0-0.14,0.07-0.34,0.21-0.6v-0.18
			H-436.69z"/>
		<rect id="XMLID_10_" x="-412.96" y="271.71" class="st3" width="0.21" height="0.77"/>
		<rect id="XMLID_8_" x="-409.79" y="258.46" class="st3" width="0.21" height="0.98"/>
	</g>
	<g id="H" class="st4">
		<path id="XMLID_1_" class="st3" d="M-276.6,218.94c0.56,0,0.95,0.26,1.16,0.77v0.21c-4.78,10.36-9.79,20.44-15.01,30.23h0.21
			c0.07,0,0.9-0.06,2.5-0.18c0,0.19,0.19,0.39,0.56,0.6c0.56-0.28,2.74-0.62,6.54-1.02c0,1.2-1.41,1.79-4.22,1.79
			c-0.02,0.07-1.44,0.41-4.25,1.02c0.26,0.42,0.39,0.82,0.39,1.2c1.41-0.28,2.44-0.42,3.09-0.42l0.39,0.6v0.6
			c0,0.42-2.82,1.29-8.47,2.6c-3.7,8.11-7.48,17.19-11.32,27.25l-0.39,0.21h-0.21c-0.26,0-0.39-0.13-0.39-0.39l1.37-3.8v-0.21h-0.21
			c-1.45,3.87-2.34,5.86-2.67,5.98h-0.39c-0.26,0-0.39-0.13-0.39-0.39c0.84-2.44,2.45-6.28,4.82-11.53v-0.21h-0.21
			c-1.05,3.05-1.83,4.57-2.32,4.57h-0.35c-0.96,0-1.48-0.2-1.55-0.6l8.26-19.51c-1.38,0.28-2.92,0.68-4.61,1.2
			c-0.26-0.12-0.46-0.18-0.6-0.18c0,0.3-2.05,0.9-6.15,1.79c-1.78,0.45-3,0.84-3.66,1.2c-0.75,0-1.25,0.13-1.51,0.39h-0.39
			l-0.39-0.21c0,0.52-1.73,1.05-5.2,1.62c0,0.21-0.76,0.54-2.29,0.98c-6.28,15.33-9.42,23.81-9.42,25.45l-0.39,0.21h-0.39
			c-0.26,0-0.39-0.13-0.39-0.39c0.38-1.66,0.82-3.26,1.34-4.78c-0.14,0.02-1.49,3.14-4.04,9.35c-0.63,1.85-1.14,2.78-1.51,2.78
			l-0.21-0.39c0.14-0.26,0.21-0.46,0.21-0.6l-0.39,0.21c-0.26,0-0.39-0.14-0.39-0.42c0-0.21,0.13-0.61,0.39-1.2l-0.39-0.18h-0.39
			c0,0.52-0.39,0.77-1.16,0.77c1.76-6.05,4.84-14.2,9.25-24.47c-0.33,0-0.66-0.13-0.98-0.39c0.4-1.57,0.84-2.84,1.34-3.8h-0.18
			c-0.16,0-2.47,0.6-6.93,1.79l-0.77-1.2c0.35-0.3,1-0.57,1.93-0.81v-0.18c-0.37,0-0.69-0.27-0.95-0.81v-0.18
			c0.12-0.37,0.82-0.84,2.11-1.41c0-0.8,0.52-1.2,1.55-1.2v-0.21c-0.52,0-0.77-0.33-0.77-0.98c1.27-0.66,2.23-0.98,2.88-0.98
			c-0.26-0.33-0.39-0.53-0.39-0.6v-0.21c1.05-0.75,2.91-1.48,5.55-2.18c4.94-11.41,8.28-18.25,10.02-20.5h0.35
			c0.26,0.02,0.39,0.15,0.39,0.39v0.39c-0.75,1.92-1.32,3.19-1.72,3.8v0.21h0.21c0.54-1.34,0.91-2,1.13-2
			c0.26,0.05,0.39,0.18,0.39,0.39l2.14-2.78c0.4-1.05,1.03-1.58,1.9-1.58c0-0.89,0.77-1.43,2.32-1.62l0.18,0.42v0.18
			c0,0.82-2.11,5.2-6.33,13.15l-3.48,7.56h0.21c5.46-1.45,13.41-3.11,23.84-4.96c0.63-1.78,3.96-8.75,9.98-20.92
			c1.88-4.38,3.41-7.37,4.61-8.96h0.21c0.26,0,0.39,0.27,0.39,0.81h0.18c0-0.63,0.77-1.89,2.32-3.76h0.18l0.6,0.39L-276.6,218.94z"
			/>
		<path id="XMLID_46_" class="st3" d="M-333.48,282.61c0,0.14-0.07,0.34-0.21,0.6v0.18h0.21c0-0.14,0.06-0.34,0.18-0.6v-0.18
			H-333.48z"/>
		<path id="XMLID_45_" class="st3" d="M-333.09,281.42c0,0.14-0.07,0.34-0.21,0.6v0.39h0.21c0-0.3,0.06-0.57,0.18-0.81v-0.18
			H-333.09z"/>
		<path id="XMLID_44_" class="st3" d="M-299.87,260.11c0,0.14-0.06,0.34-0.18,0.6v0.21h0.18c0-0.14,0.07-0.34,0.21-0.6v-0.21
			H-299.87z"/>
		<path id="XMLID_43_" class="st3" d="M-299.27,258.92c0,0.14-0.07,0.34-0.21,0.6h0.21l0.18-0.39v-0.21H-299.27z"/>
		<path id="XMLID_42_" class="st3" d="M-299.1,258.53v0.18h0.21c0.75-1.57,1.13-2.5,1.13-2.78
			C-297.97,255.93-298.42,256.79-299.1,258.53z"/>
		<path id="XMLID_41_" class="st3" d="M-290.62,239.62c-2.18,4.57-3.53,7.56-4.04,8.96v0.18c0.19-0.05,1.66-3.09,4.43-9.14H-290.62z
			"/>
		<path id="XMLID_40_" class="st3" d="M-290.24,238.81v0.6h0.18c0-0.14,0.07-0.34,0.21-0.6H-290.24z"/>
	</g>
	<g id="T" class="st4">
		<path id="XMLID_28_" class="st3" d="M-263.58,208.61v0.25l0.46-0.25h0.21v0.25c0,0.52-0.9,0.83-2.71,0.95
			c0-0.16-0.07-0.25-0.21-0.25c0,0.33-0.15,0.49-0.46,0.49h-0.67l-5.87,0.74v0.25c0.75,0,1.13,0.15,1.13,0.46v0.25l0.46-0.25h0.67
			v0.49c-1.5,0.49-4.97,1.14-10.41,1.93l-0.21,0.49l1.13-0.25h1.13v0.49l-5.87,1.44l-0.46-0.25c-18.19,3.07-29.64,5.25-34.35,6.54
			c-10.38,2.18-15.57,3.46-15.57,3.83c0,0.49-0.9,3.15-2.71,7.98c-5.63,13.73-10.9,27.98-15.82,42.75
			c-2.72,8.74-4.45,13.65-5.2,14.73c0,0.16,0.07,0.25,0.21,0.25c0,0.35-0.67,2.29-2,5.8l-0.46-0.25l-0.91,1.44h-0.21
			c0.45-1.99,0.82-3.2,1.13-3.62v-0.74c-0.75,0-1.13-0.32-1.13-0.95l4.29-12.34l-0.25-1.44c0.3-1.03,0.46-1.59,0.46-1.69v-0.25
			h-0.21c-0.82,2.91-1.58,4.36-2.29,4.36h-0.21c0.14-1.29,0.36-1.93,0.67-1.93c-0.14-0.3-0.21-0.55-0.21-0.74l7.45-22.68l-0.25-0.49
			c3.98-9.77,7.45-19.28,10.41-28.51h-0.21l-14.7,3.87c-0.54-0.14-0.84-0.21-0.91-0.21c-1.31,0.47-2.29,0.7-2.92,0.7l-0.25-0.49
			v-0.7l8.82-1.93v-0.25h-0.46c-2.95,0.63-4.61,0.95-4.96,0.95c0-0.14-0.08-0.21-0.25-0.21c0,0.3-0.15,0.46-0.46,0.46l-0.42-0.25
			c0,0.33-0.15,0.49-0.46,0.49l-0.46-0.25l-1.37,0.25c-0.14,0-0.21-0.08-0.21-0.25c-2.6,0.82-4.03,1.23-4.29,1.23l-0.25-0.49v-0.25
			c0.12-0.37,1.17-0.86,3.16-1.44c0-0.87,2.48-1.91,7.45-3.13v-0.25h-0.67c-0.54,0.3-1.14,0.46-1.79,0.46
			c-0.3,0-0.46-0.15-0.46-0.46v-0.25c0-0.66,9.71-2.75,29.14-6.29c3.87-0.8,6.5-1.59,7.91-2.39c8.18-1.62,15.33-2.91,21.45-3.87
			v0.25c0.44-0.33,2.71-0.74,6.79-1.23v0.25l-0.21,0.49h0.21l0.91-0.98h0.67c0,0.19,0.08,0.43,0.25,0.74
			c-0.16,0-0.25,0.08-0.25,0.25l2.5-0.49v0.25c0.47-0.28,3.7-0.93,9.7-1.93c0.05,0.33,0.2,0.49,0.46,0.49
			c0-0.61,1.96-1.02,5.87-1.23C-272.12,209.54-268.95,209.15-263.58,208.61z"/>
		<path id="XMLID_37_" class="st3" d="M-357.14,275.26c-0.28,0.87-0.42,1.35-0.42,1.44v0.25h0.21c0-0.28,0.15-0.76,0.46-1.44v-0.25
			H-357.14z"/>
		<path id="XMLID_36_" class="st3" d="M-356.68,273.82c0,0.35-0.07,0.67-0.21,0.95v0.25h0.21c0-0.16,0.08-0.41,0.25-0.74v-0.46
			H-356.68z"/>
		<path id="XMLID_35_" class="st3" d="M-355.76,271.15c0,0.16-0.08,0.41-0.25,0.74v0.46h0.25c0-0.35,0.07-0.67,0.21-0.95v-0.25
			H-355.76z"/>
		<rect id="XMLID_34_" x="-352.39" y="228.65" class="st3" width="0.91" height="0.25"/>
		<polygon id="XMLID_33_" class="st3" points="-351.26,228.4 -351.26,228.65 -350.81,228.65 -349.44,228.4 -349.44,228.15 
			-349.89,228.15 		"/>
		<path id="XMLID_31_" class="st3" d="M-339.73,222.6v0.25h0.25l1.34-0.25v-0.21h-0.67C-339.08,222.53-339.38,222.6-339.73,222.6z"
			/>
		<polygon id="XMLID_32_" class="st3" points="-336.32,226.22 -337.69,230.09 -337.69,230.58 -337.48,230.58 -336.11,226.47 
			-336.11,226.22 		"/>
		<rect id="XMLID_30_" x="-334.74" y="221.4" class="st3" width="0.88" height="0.25"/>
	</g>
	<g id="Y" class="st4">
		<path id="XMLID_17_" class="st3" d="M-396.01,249.46v0.56c0.21,0.33,0.32,0.72,0.32,1.16h0.28v-0.6c-0.19-0.33-0.28-0.7-0.28-1.13
			H-396.01z"/>
		<path id="XMLID_18_" class="st3" d="M-395.42,251.46v0.28c0.56,2.02,0.84,3.26,0.84,3.73h0.28v-0.88
			c-0.56-1.43-0.84-2.47-0.84-3.13H-395.42z"/>
		<path id="XMLID_15_" class="st3" d="M-399.44,305.21c0.56-2.63,1.14-3.57,1.14-4.15l10.34-20.88
			c-6.89-21.47-10.34-33.13-10.34-34.98l0.6-0.28c0.75,1.69,1.13,2.74,1.13,3.16h0.28v-0.56c-1.45-7.24-2.69-11.54-3.73-12.9
			l0.6-0.28c1.24,0,3.15,5.16,5.73,15.47h0.28c0-0.59,0.19-0.88,0.56-0.88c-2.86-9.59-4.29-14.93-4.29-16.03
			c1.24,1.62,2.39,4.1,3.45,7.45c1.01,1.05,2.25,5.54,3.73,13.46l5.73,18.63c0.37-0.3,4.38-7.28,12.02-20.92l4.57-6.33v1.44h0.28
			c0-1.57,7.64-13.61,22.92-36.11c1.48-1.9,2.34-2.85,2.6-2.85h0.28l-6.61,10.3h0.28c0.4-1.01,1.55-2.53,3.45-4.57v0.28
			c-0.49,1.27-2.2,3.94-5.13,8.02v0.28c1.5-1.31,3.12-3.41,4.85-6.29h0.56v0.28l-5.13,7.73c0.19,0.35,0.28,0.74,0.28,1.16
			c-2.11,3.05-10.9,18.13-26.37,45.25c-12.94,24.02-21.15,38.73-24.64,44.12c-0.47,0.4-0.75,0.6-0.84,0.6
			c0-0.21-0.09-0.32-0.28-0.32l3.45-6.01v-0.28h-0.32c0,0.77-0.28,1.16-0.84,1.16l-0.28-0.6c0.38,0,0.56-0.19,0.56-0.56v-0.28
			c-0.33,0-1,0.48-2,1.44L-399.44,305.21z"/>
	</g>
	<g id="O" class="st4">
		<path id="XMLID_14_" class="st3" d="M-240.25,234.59v-3.41c0-2.23-0.13-4.62-0.39-7.17c0-0.09,0.05-0.14,0.14-0.14
			c-0.28-5.86-0.74-9.42-1.37-10.69c-0.19-0.19-0.41-0.87-0.67-2.04c0.14-0.35,0.27-0.53,0.39-0.53h0.14c0.96,0,1.86,1.54,2.71,4.61
			h0.28c-0.19-0.87-0.28-1.36-0.28-1.48v-0.7l0.14-0.25c0.91,0,1.86,3.29,2.85,9.88c0.44,5.13,0.67,7.97,0.67,8.51v1.09l0.14,0.67
			h-0.14l0.14,0.28v0.14c0,0.09-0.05,0.14-0.14,0.14l0.14,0.28v1.2c0,1.36-0.05,3.21-0.14,5.55c-0.19,0.49-0.82,3.39-1.9,8.68
			l-0.81,2.43c0,0.07,0.05,0.34,0.14,0.81c0,0.26-0.41,1.3-1.23,3.13l-4.04,7.98c-1.55,3.05-4.66,7.2-9.35,12.45
			c-5.48,4.92-9.27,7.63-11.36,8.12c-1.92,0.98-3.64,1.52-5.17,1.62c0,0.09-0.72,0.19-2.14,0.28c-3.28,0-6.22-1.71-8.82-5.13
			c-1.52-2.3-2.29-5.24-2.29-8.82c0-7.19,2.17-14.41,6.5-21.66c1.41-2.74,4.2-6.45,8.37-11.11c5.41-5.37,10.38-9.25,14.91-11.64
			c2.98-1.43,4.96-2.14,5.94-2.14h0.56l0.28,0.11c0,0.73-0.46,1.23-1.37,1.51c-2.44,1.55-3.66,2.4-3.66,2.57
			c-0.26,0.49-2.06,1.98-5.41,4.46c0,0.14-2.21,2.48-6.64,7.03c-5.06,5.91-8.17,10.11-9.32,12.62c-2.63,4.2-3.94,7.66-3.94,10.41
			c-0.07,0-0.25,1.54-0.53,4.61v5.03l0.25,0.39v0.67c0,1.9,1.09,3.21,3.27,3.94l2.43,0.95c0.09,0,0.14-0.05,0.14-0.14
			c0.73,0.19,1.31,0.28,1.76,0.28c1.85,0,3.75-0.54,5.7-1.62C-263.38,278.32-239.92,261.31-240.25,234.59z"/>
		<path id="XMLID_54_" class="st3" d="M-278.82,257.58l0.11,0.28c-0.89,2.25-1.38,3.38-1.48,3.38c0.09,0.19,0.14,0.33,0.14,0.42
			c-0.23,0.7-0.46,1.2-0.67,1.48l0.14,0.28c-0.28,0.91-0.6,2.63-0.95,5.13h0.25c0-0.42,0.46-2.13,1.37-5.13
			c0-1.71,1.03-4.83,3.09-9.35h-0.11c-0.42,0.33-0.88,1.15-1.37,2.46L-278.82,257.58z"/>
		<path id="XMLID_59_" class="st3" d="M-278.43,280.89v0.28c0.19,0,0.55,0.35,1.09,1.05c1.55,1.1,2.94,1.65,4.18,1.65
			c0.09,0,0.46,0.04,1.09,0.11h0.14v-0.11c-2.41-0.47-4.31-1.15-5.7-2.04C-278.04,281.21-278.31,280.89-278.43,280.89z"/>
		<path id="XMLID_57_" class="st3" d="M-278.15,278.99c0,0.61,0.81,1.34,2.43,2.18h0.14C-275.58,281.05-276.44,280.33-278.15,278.99
			z"/>
		<path id="XMLID_61_" class="st3" d="M-276,283.98v0.14c1.43,0.63,3.06,0.95,4.89,0.95h0.42v-0.14c-0.38,0-0.56-0.05-0.56-0.14
			c-0.09,0-0.14,0.05-0.14,0.14c-2.3-0.26-3.79-0.57-4.46-0.95H-276z"/>
		<path id="XMLID_62_" class="st3" d="M-270.31,284.79v0.14h0.42l1.34-0.14v-0.11h-0.67C-269.71,284.76-270.07,284.79-270.31,284.79
			z"/>
		<polygon id="XMLID_60_" class="st3" points="-270.17,281.84 -270.17,281.98 -269.5,281.98 -267.99,281.56 -267.99,281.42 
			-268.13,281.42 		"/>
		<path id="XMLID_58_" class="st3" d="M-260.96,278.99l-0.67,0.53h0.14c0.4-0.26,0.67-0.39,0.81-0.39v-0.14H-260.96z"/>
		<path id="XMLID_51_" class="st3" d="M-259.06,232.55v0.14h0.14c2.98-1.55,5.14-2.81,6.5-3.8l3.66-2.04v-0.14h-0.28
			c-3.54,1.64-6.83,3.59-9.88,5.84H-259.06z"/>
		<path id="XMLID_56_" class="st3" d="M-254.07,273.29v0.14c0.77-0.3,2.13-1.79,4.08-4.46l2.18-3.13h-0.14
			C-249.43,268.07-251.46,270.55-254.07,273.29z"/>
		<path id="XMLID_55_" class="st3" d="M-247,264.22c0,0.16-0.14,0.39-0.42,0.67v0.14c0.12,0,0.29-0.22,0.53-0.67v-0.14H-247z"/>
		<path id="XMLID_49_" class="st3" d="M-241.2,212.23v0.42c0.19,0.21,0.28,0.53,0.28,0.95h0.28
			C-240.75,212.69-240.94,212.23-241.2,212.23z"/>
		<path id="XMLID_50_" class="st3" d="M-239.02,216.97v0.28c0.77,5.32,1.31,7.98,1.62,7.98c-0.45-3.7-0.94-6.46-1.48-8.26H-239.02z"
			/>
		<path id="XMLID_53_" class="st3" d="M-237.26,232.41l-0.28,3.8v0.14h0.14l0.14-0.7v-1.2l0.14-0.81c0-0.09-0.05-0.14-0.14-0.14
			l0.14-0.67v-0.42H-237.26z"/>
		<rect id="XMLID_52_" x="-237.4" y="230.37" class="st3" width="0.14" height="1.23"/>
	</g>
	<g id="S" class="st4">
		<rect id="XMLID_22_" x="-240.57" y="303.21" class="st2" width="5.13" height="4.29"/>
		<path id="XMLID_23_" class="st1" d="M-178.53,214.67l0.08-0.06c-0.04,0-0.07,0.01-0.11,0.01L-178.53,214.67z"/>
		<path id="XMLID_82_" class="st2" d="M-172.66,220.7l-5.33-6.44c0,0.21-0.16,0.32-0.45,0.34l-0.08,0.06l0.15,0.33v0.21
			c-3.96,3.45-7.63,6.35-11,8.72c-1.36,1.36-3.39,3.01-6.08,4.96l-9.88,8.54c-0.02,0.14-4.01,3.75-11.95,10.83
			c-2.93,2.74-4.39,4.2-4.39,4.36h0.21c5.62-1.3,10.71-2.33,15.31-3.1c4.08-3.66,6.14-5.55,6.16-5.65l9.88-8.54
			c2.69-1.95,4.72-3.6,6.08-4.96c3.38-2.37,7.04-5.27,11-8.72v-0.21l-0.18-0.39C-172.85,221.06-172.66,220.94-172.66,220.7z"/>
		<path id="XMLID_87_" class="st2" d="M-190.33,249v0.21h2.46c0.26,0.02,0.39,0.14,0.39,0.35v0.77c0,0.12-0.07,0.18-0.21,0.18
			l0.21,0.39v0.21c-0.68,0.66-2.26,2.61-4.75,5.87c-11.74,11.46-20.8,20.9-27.18,28.3l-6.08,6.82c-1.66,2.44-3.18,4.46-4.54,6.08
			h-0.21v-0.18l0.56-1.16h-0.18c0,0.21-0.26,0.47-0.77,0.77v-0.39h-0.18v0.77c-0.21,0-1.61,1.39-4.18,4.18h-0.18l-0.39-0.21
			l0.18,0.39v0.39c-0.19,0-0.5,0.37-0.95,1.13l-0.95,0.6v-0.21l0.6-0.77v-0.18h-0.21c0,0.28-0.76,1.23-2.29,2.85h0.39v-0.18
			c0.05-0.26,0.18-0.39,0.39-0.39v0.18c0,0.26-0.13,0.39-0.39,0.39v0.21c-0.19,0-0.43,0.25-0.74,0.74h-0.21
			c0.14-0.8,0.59-1.62,1.34-2.46l-0.39-0.18c0,0.16-0.19,0.35-0.56,0.56v-0.21c0.26-0.4,0.39-0.72,0.39-0.95l-0.39-0.18
			c0,0.52-0.26,0.77-0.77,0.77l-0.95-0.21c-0.02,0.54-0.77,1.43-2.25,2.67c0,0.37-1.15,1.77-3.45,4.18c0,0.12-0.63,0.68-1.9,1.69
			c0-0.26-0.13-0.39-0.39-0.39c-0.07,0.4-0.32,0.66-0.74,0.77l5.33,6.44c0.33-0.09,0.54-0.27,0.66-0.52l0.24-0.19
			c0.13,0.05,0.22,0.15,0.22,0.33c1.27-1.01,1.9-1.57,1.9-1.69c2.3-2.41,3.45-3.81,3.45-4.18c1.48-1.24,2.23-2.13,2.25-2.67
			l0.95,0.21c0.52,0,0.77-0.26,0.77-0.77l0.39,0.18c0,0.23-0.13,0.55-0.39,0.95v0.21c0.38-0.21,0.56-0.4,0.56-0.56l0.39,0.18
			c-0.75,0.84-1.2,1.66-1.34,2.46h0.21c0.3-0.49,0.55-0.74,0.74-0.74v-0.21h-0.39c1.52-1.62,2.29-2.57,2.29-2.85h0.21v0.18
			l-0.6,0.77v0.21l0.95-0.6c0.45-0.75,0.76-1.13,0.95-1.13v-0.39l-0.18-0.39l0.39,0.21h0.18c2.58-2.79,3.97-4.18,4.18-4.18v-0.77
			h0.18v0.39c0.52-0.3,0.77-0.56,0.77-0.77h0.18l-0.56,1.16v0.18h0.21c1.36-1.62,2.87-3.64,4.54-6.08l6.08-6.82
			c6.38-7.41,15.43-16.84,27.18-28.3c2.48-3.26,4.07-5.21,4.75-5.87v-0.21l-0.21-0.39c0.14,0,0.21-0.06,0.21-0.18V256
			c0-0.21-0.13-0.33-0.39-0.35H-185v-0.21c1.38,0,2.07-0.19,2.07-0.56c0-0.06-0.03-0.11-0.06-0.16l0.01,0l-0.02-0.03
			c-0.01-0.01-0.02-0.02-0.03-0.03l-5.23-6.22C-188.26,248.81-188.95,249-190.33,249z M-237.44,304.65v0.18
			c0,0.26-0.13,0.39-0.39,0.39H-238C-238,305.03-237.82,304.84-237.44,304.65z"/>
		<path id="XMLID_88_" class="st2" d="M-233.26,259.27c-0.04,0-0.07-0.01-0.11-0.01l-0.45,0.4c0.23-0.14,0.42-0.21,0.56-0.21V259.27
			z"/>
		<path id="XMLID_89_" class="st2" d="M-197.57,254.52h-0.35c-2.13,0-7.58,0.82-16.35,2.46v0.18l-0.39-0.18h-0.18v0.39l-0.95-0.21
			c0,0.26-0.13,0.39-0.39,0.39h-0.39l-0.39-0.18c0,0.35-2.97,0.86-8.89,1.51c-1.24,0.38-3.66,0.88-7.24,1.51
			c0-0.19-0.25-0.43-0.74-0.74l5.33,5.63v0.03c0,0.21,0.13,0.33,0.38,0.37l0.18,0.19c-0.14,0-0.33,0.07-0.56,0.21
			c0.49,0.3,0.74,0.55,0.74,0.74c3.59-0.63,6-1.14,7.24-1.51c5.93-0.66,8.89-1.16,8.89-1.51l0.39,0.18h0.39
			c0.26,0,0.39-0.13,0.39-0.39l0.95,0.21v-0.39h0.18l0.39,0.18v-0.18c1.13-0.21,2.2-0.41,3.22-0.59
			C-202.3,259.26-199.58,256.48-197.57,254.52z"/>
		<path id="XMLID_90_" class="st2" d="M-188.26,219.75h0.21c0.05,0,0.23-0.13,0.56-0.39v0.21c-0.14,0.23-0.21,0.42-0.21,0.56
			l0.6-0.39h0.35c0.14,0,0.21,0.07,0.21,0.21c0.23-0.14,0.42-0.21,0.56-0.21v-0.18h-0.39v-0.39h0.21l0.35,0.18l0.91-0.64l-1.08-1.26
			v0.21L-188.26,219.75z"/>
		<path id="XMLID_91_" class="st2" d="M-228.9,252.8c-0.84,0.42-1.98,1.31-3.41,2.67h-0.39l0.53,0.7c0.8-0.79,1.88-1.84,3.26-3.16
			V252.8z"/>
		<path id="XMLID_114_" class="st3" d="M-221.48,252.62h-0.21c0-0.16,1.46-1.62,4.39-4.36c7.95-7.08,11.93-10.69,11.95-10.83
			l9.88-8.54c2.69-1.95,4.72-3.6,6.08-4.96c3.38-2.37,7.04-5.27,11-8.72v-0.21l-0.15-0.33l-0.02-0.05c0.04,0,0.07-0.01,0.11-0.01
			c0.3-0.02,0.45-0.13,0.45-0.34h-0.56l-6.33,4.46l-0.91,0.64l-0.35-0.18h-0.21v0.39h0.39v0.18c-0.14,0-0.33,0.07-0.56,0.21
			c0-0.14-0.07-0.21-0.21-0.21h-0.35l-0.6,0.39c0-0.14,0.07-0.33,0.21-0.56v-0.21c-0.33,0.26-0.52,0.39-0.56,0.39h-0.21l2.29-2.07
			v-0.21c-0.21-0.37-0.4-0.56-0.56-0.56h-0.39c-0.89,0.54-1.34,0.93-1.34,1.16c-0.28,0-0.54-0.07-0.77-0.21
			c-0.26,0-1.32,0.82-3.2,2.46c-6.31,5.02-10.68,8.25-13.11,9.7c-4.48,3-10.04,7.75-16.7,14.24c-4.85,4.41-8.4,7.83-10.65,10.27
			c0,0.26,0.13,0.39,0.39,0.39l-0.39,0.56h0.39c1.43-1.36,2.57-2.25,3.41-2.67v0.21c-1.39,1.33-2.46,2.37-3.26,3.16
			c-1.07,1.05-1.63,1.65-1.66,1.76v0.95c0,0.23,0.16,0.35,0.45,0.38c0.04,0,0.07,0.01,0.11,0.01v0.18c-0.14,0-0.33,0.07-0.56,0.21
			c0.49,0.3,0.74,0.55,0.74,0.74c3.59-0.63,6-1.14,7.24-1.51c5.93-0.66,8.89-1.16,8.89-1.51l0.39,0.18h0.39
			c0.26,0,0.39-0.13,0.39-0.39l0.95,0.21v-0.39h0.18l0.39,0.18v-0.18c8.77-1.64,14.21-2.46,16.35-2.46h0.35
			c-2,1.96-4.73,4.74-8.15,8.3c-2.38,2.49-5.09,5.34-8.17,8.61c-11.88,13.01-18.47,20.53-19.76,22.57
			c-8.41,9.05-13.79,15.39-16.14,19.02v0.18c0.42-0.12,0.67-0.38,0.74-0.77c0.26,0,0.39,0.13,0.39,0.39c1.27-1.01,1.9-1.57,1.9-1.69
			c2.3-2.41,3.45-3.81,3.45-4.18c1.48-1.24,2.23-2.13,2.25-2.67l0.95,0.21c0.52,0,0.77-0.26,0.77-0.77l0.39,0.18
			c0,0.23-0.13,0.55-0.39,0.95v0.21c0.38-0.21,0.56-0.4,0.56-0.56l0.39,0.18c-0.75,0.84-1.2,1.66-1.34,2.46h0.21
			c0.3-0.49,0.55-0.74,0.74-0.74v-0.21h-0.39c1.52-1.62,2.29-2.57,2.29-2.85h0.21v0.18l-0.6,0.77v0.21l0.95-0.6
			c0.45-0.75,0.76-1.13,0.95-1.13v-0.39l-0.18-0.39l0.39,0.21h0.18c2.58-2.79,3.97-4.18,4.18-4.18v-0.77h0.18v0.39
			c0.52-0.3,0.77-0.56,0.77-0.77h0.18l-0.56,1.16v0.18h0.21c1.36-1.62,2.87-3.64,4.54-6.08l6.08-6.82
			c6.38-7.41,15.43-16.84,27.18-28.3c2.48-3.26,4.07-5.21,4.75-5.87v-0.21l-0.21-0.39c0.14,0,0.21-0.06,0.21-0.18v-0.77
			c0-0.21-0.13-0.33-0.39-0.35h-2.46V249c1.38,0,2.07-0.19,2.07-0.56c0-0.3-0.45-0.49-1.34-0.56c-4.48,0-10.01,0.55-16.58,1.65
			C-210.77,250.29-215.86,251.32-221.48,252.62z"/>
		<polygon id="XMLID_63_" class="st2" points="-224.9,304.62 -228.05,301.02 -223.3,301.57 -224.34,303.77 		"/>
		<polygon id="XMLID_64_" class="st2" points="-231.93,310.7 -235.96,306.02 -230.94,309.36 -230.94,310.02 		"/>
		<polygon id="XMLID_65_" class="st2" points="-182.33,255.71 -185.88,251.86 -187.01,255.9 -184.67,257.4 		"/>
	</g>
</g>
</svg>
