<?xml version="1.0" standalone="no"?>
<!DOCTYPE svg PUBLIC "-//W3C//DTD SVG 20010904//EN"
 "http://www.w3.org/TR/2001/REC-SVG-20010904/DTD/svg10.dtd">
<svg version="1.0" xmlns="http://www.w3.org/2000/svg"
 width="211.000000pt" height="211.000000pt" viewBox="0 0 211.000000 211.000000"
 preserveAspectRatio="xMidYMid meet">
<metadata>
Created by potrace 1.14, written by Peter Selinger 2001-2017
</metadata>
<g transform="translate(0.000000,211.000000) scale(0.100000,-0.100000)"
fill="#000000" stroke="none">
<path d="M1029 2056 c-2 -2 -43 -7 -90 -10 -47 -3 -98 -10 -115 -17 -16 -7
-33 -11 -38 -10 -15 3 -76 -20 -76 -29 0 -5 -7 -6 -17 -3 -12 5 -14 3 -8 -7 6
-10 4 -12 -9 -7 -9 4 -32 -1 -51 -10 -29 -14 -38 -26 -50 -67 -8 -27 -15 -66
-16 -85 0 -30 -2 -33 -9 -16 -6 13 -7 -5 -4 -51 4 -48 3 -74 -5 -78 -6 -4 -11
-16 -11 -27 0 -11 -11 -43 -26 -72 l-25 -52 30 33 c17 18 31 29 31 24 0 -14
-32 -56 -89 -117 -31 -33 -52 -56 -47 -53 5 4 18 3 29 -3 14 -8 18 -8 13 0 -4
6 -2 16 4 23 6 7 17 22 25 33 13 18 14 17 10 -23 -2 -23 -13 -56 -25 -72 -22
-31 -17 -43 6 -12 7 9 14 14 14 10 0 -3 -20 -30 -45 -59 -25 -29 -45 -57 -45
-61 0 -5 -10 -22 -21 -37 -12 -16 -19 -35 -17 -42 2 -7 15 5 28 29 13 23 28
42 33 42 8 0 7 -13 -9 -75 -4 -16 1 -14 22 10 18 19 25 23 21 11 -6 -14 -4
-17 8 -12 32 12 5 -11 -32 -28 -28 -12 -38 -23 -38 -40 l0 -24 30 21 30 20
-30 -32 c-27 -31 -28 -33 -7 -27 33 11 27 -3 -8 -15 -25 -9 -30 -16 -30 -45 0
-26 3 -32 15 -28 9 4 15 1 15 -7 0 -7 16 3 37 22 l36 34 -33 -47 c-18 -26 -43
-57 -56 -69 -28 -26 -35 -71 -9 -49 17 14 31 6 37 -23 1 -10 8 -19 13 -19 6
-1 23 -20 39 -41 22 -31 30 -37 37 -26 5 8 9 9 9 4 0 -12 -29 -57 -43 -66 -5
-4 -19 -4 -31 -1 -21 5 -21 5 -2 -13 18 -19 19 -18 48 14 16 18 32 30 35 27 4
-3 -3 -17 -15 -29 -22 -23 -22 -24 -4 -40 17 -16 21 -15 55 17 20 19 37 30 37
26 0 -11 -69 -70 -82 -70 -6 0 -16 7 -22 16 -12 16 -50 9 -40 -8 4 -6 10 -5
16 3 8 11 9 10 5 -3 -6 -17 31 -46 112 -87 23 -12 40 -25 37 -28 -3 -3 -39 13
-80 35 -70 38 -75 39 -90 23 -21 -23 -20 -30 9 -74 28 -40 50 -48 59 -20 3 11
4 7 3 -7 -1 -17 5 -28 20 -35 33 -14 28 -26 -6 -14 -16 6 -52 33 -79 61 -53
53 -100 70 -129 47 -7 -7 -17 -8 -21 -4 -4 4 -1 10 6 12 6 3 10 9 6 14 -6 11
-24 12 -23 2 3 -18 -2 -33 -10 -33 -4 0 -6 11 -3 25 l4 26 -35 -17 -36 -17 17
-29 c9 -16 36 -50 59 -76 34 -38 42 -43 43 -27 1 13 6 7 14 -16 14 -39 54 -79
142 -142 38 -27 54 -34 54 -23 0 22 17 29 40 16 46 -25 130 51 130 119 0 22
15 36 24 23 3 -5 -10 -57 -29 -117 -19 -59 -32 -112 -29 -116 8 -13 112 -41
124 -34 5 3 10 12 10 20 0 8 5 17 12 21 7 5 9 2 6 -7 -3 -8 -9 -21 -13 -31 -5
-13 3 -18 42 -26 67 -15 236 -25 248 -15 6 4 25 41 44 80 19 40 37 71 39 68 2
-2 -10 -34 -27 -71 -17 -36 -31 -68 -31 -71 0 -2 17 -3 37 -1 33 3 42 10 71
53 19 28 47 77 63 110 42 87 35 51 -10 -54 -46 -105 -46 -105 65 -67 135 46
280 132 358 215 29 30 29 30 11 58 -10 15 -42 58 -72 95 -29 37 -53 69 -53 71
0 3 19 2 43 0 35 -4 49 0 84 26 47 34 56 56 51 122 -3 41 -1 45 32 65 38 22
40 35 13 91 -16 35 -97 99 -138 109 -14 3 -25 10 -25 15 0 5 -9 9 -20 9 -30 0
-24 25 16 64 29 28 33 37 21 42 -9 3 -20 18 -25 32 -5 15 -21 34 -36 41 -23
13 -30 13 -59 -1 -31 -15 -33 -15 -32 0 1 10 6 26 10 36 10 23 -18 48 -43 39
-11 -5 -13 -3 -7 7 6 9 4 11 -4 6 -7 -5 -10 -11 -7 -14 7 -6 -62 -41 -82 -42
-7 0 -10 5 -7 10 3 6 -4 10 -16 10 -20 0 -21 2 -7 18 27 30 48 85 42 105 -4
12 -2 17 4 13 5 -3 17 11 25 32 13 33 13 40 0 66 -8 15 -10 25 -4 22 13 -9 13
-9 1 32 -8 29 -7 32 5 22 20 -16 19 -12 -5 35 -11 22 -20 47 -20 57 0 10 -4
18 -10 18 -5 0 -10 9 -10 20 0 11 -4 20 -8 20 -4 0 -14 27 -20 60 -7 33 -19
63 -26 67 -12 7 -46 64 -46 78 0 3 19 -13 42 -37 23 -24 41 -46 40 -51 -4 -13
27 -77 36 -77 6 0 13 -7 16 -16 3 -8 2 -12 -4 -9 -6 3 -10 2 -10 -4 0 -5 5
-13 10 -16 6 -3 10 -15 10 -26 0 -10 5 -19 11 -19 5 0 7 -5 4 -11 -4 -6 10
-25 30 -44 24 -21 36 -39 32 -48 -7 -18 28 -53 37 -39 3 6 2 21 -3 34 -7 17
-10 18 -10 6 -1 -10 -6 -18 -11 -18 -7 0 -6 8 2 23 16 29 16 29 -40 255 l-47
193 -80 25 c-97 31 -170 41 -179 25 -4 -6 -1 -11 8 -11 9 0 16 -4 16 -10 0 -5
18 -10 39 -10 42 0 98 -17 88 -26 -3 -3 -15 0 -27 6 -12 6 -28 9 -36 6 -18 -7
-13 -13 58 -82 29 -28 44 -52 41 -61 -4 -11 -13 -5 -35 21 -16 20 -33 34 -37
31 -4 -2 -21 10 -38 28 -29 32 -92 87 -99 87 -2 0 -1 -8 3 -17 6 -16 4 -16
-15 1 -12 11 -25 16 -29 13 -3 -4 -14 7 -24 23 -16 26 -46 39 -60 26z m-81
-147 c56 -14 56 -14 46 -31 -5 -7 -9 -17 -10 -23 -4 -22 -23 -59 -23 -47 -2
27 -21 0 -21 -29 0 -16 -5 -29 -10 -29 -7 0 -7 -6 0 -20 6 -11 20 -20 32 -20
26 0 102 -35 118 -55 7 -8 -9 -3 -35 11 -40 23 -54 26 -100 20 -30 -3 -67 -11
-82 -18 -33 -14 -103 -77 -103 -93 0 -5 11 -23 25 -38 14 -15 22 -27 17 -27
-4 0 -16 -16 -25 -36 -13 -25 -14 -40 -7 -54 8 -16 5 -20 -23 -29 -26 -9 -33
-17 -35 -40 -1 -18 3 -31 13 -35 9 -3 13 -2 10 4 -3 6 1 7 9 4 9 -3 16 -10 16
-15 0 -5 6 -9 13 -9 7 0 18 -5 25 -12 8 -8 5 -14 -15 -25 -14 -7 -33 -13 -42
-13 -15 0 -71 -51 -71 -64 0 -11 55 6 66 20 15 18 74 30 74 15 0 -6 -11 -11
-24 -11 -14 0 -27 -3 -29 -7 -3 -5 16 -6 41 -5 44 4 46 3 27 -12 -11 -9 -37
-19 -57 -22 -34 -6 -54 -24 -27 -24 6 0 9 -6 6 -14 -4 -11 3 -13 31 -9 46 6
83 -17 64 -39 -6 -8 -30 -23 -52 -33 -22 -10 -37 -22 -34 -26 14 -24 -17 -4
-53 34 -55 56 -79 108 -134 287 -15 47 5 142 28 133 12 -5 14 -1 9 14 -6 18
-1 20 38 21 25 1 48 -2 51 -8 4 -6 12 -5 21 4 15 15 20 47 7 44 -5 -1 -21 4
-36 10 -38 16 -68 15 -94 -3 -20 -14 -22 -14 -28 6 -11 33 9 45 48 31 45 -16
97 -16 97 1 0 26 -25 37 -82 37 -32 0 -58 3 -58 6 0 4 9 45 20 93 28 119 45
138 150 166 97 27 142 30 208 14z m110 -275 c20 -9 32 -18 25 -21 -6 -2 -31 5
-55 16 -51 23 -24 28 30 5z m-65 -99 c0 -5 -20 -16 -43 -24 -50 -16 -40 -27
35 -36 42 -6 57 -3 89 16 31 18 39 20 46 8 11 -17 -7 -39 -32 -39 -11 0 -44
-24 -75 -52 -72 -70 -89 -76 -124 -42 -15 14 -30 37 -33 50 -4 13 -11 24 -16
24 -17 0 -1 63 21 84 21 21 22 21 15 1 -6 -18 -5 -18 16 3 18 18 32 22 63 20
22 -2 39 -7 38 -13z m-158 -156 c11 -17 -1 -21 -15 -4 -8 9 -8 15 -2 15 6 0
14 -5 17 -11z m80 -86 c13 -16 25 -30 25 -33 0 -3 -19 -5 -43 -4 -81 2 -80 1
-45 34 18 16 34 30 36 30 2 0 14 -12 27 -27z m370 -93 c-7 -30 -68 -102 -110
-127 l-20 -12 20 6 c16 5 15 1 -7 -20 -29 -27 -37 -57 -15 -57 17 -1 -34 -40
-52 -40 -12 0 -12 2 1 13 9 6 19 23 23 37 l8 25 -26 -25 c-15 -14 -27 -32 -27
-41 0 -9 -6 -19 -14 -22 -14 -6 -28 -57 -15 -57 4 0 17 12 28 26 12 15 44 37
71 50 28 13 49 28 48 35 -2 6 10 14 27 16 16 2 44 15 62 29 17 13 35 24 40 24
4 0 28 18 52 40 24 22 48 37 53 34 5 -3 19 2 30 13 12 10 18 12 13 4 -6 -11
-3 -13 15 -8 22 6 22 5 3 -12 -10 -10 -36 -24 -56 -30 -38 -13 -52 -27 -17
-18 29 7 34 -10 8 -25 -13 -7 -26 -11 -30 -10 -4 1 -20 -3 -35 -9 -22 -8 -25
-12 -13 -20 13 -8 12 -12 -4 -24 -11 -8 -27 -15 -37 -15 -9 0 -32 -6 -50 -14
-19 -7 -39 -11 -46 -9 -7 2 -24 -4 -37 -14 -29 -21 -35 -38 -8 -24 9 5 30 8
45 8 l28 -2 -23 -18 c-13 -11 -24 -14 -26 -8 -2 5 -26 -6 -53 -25 -27 -20 -47
-40 -44 -44 8 -13 -14 -23 -46 -22 -21 0 -29 -4 -29 -16 0 -23 -62 -64 -84
-56 -11 4 -16 14 -13 25 3 11 3 19 1 19 -2 0 -45 -20 -94 -45 -49 -25 -92 -45
-95 -45 -3 0 -6 15 -6 33 l-2 32 -6 -35 c-9 -53 19 -55 100 -8 36 21 70 38 76
38 20 0 32 -23 22 -41 -9 -17 -7 -18 18 -8 16 6 41 22 57 37 l30 27 -23 -30
c-31 -41 -58 -54 -113 -55 -41 0 -48 -3 -48 -20 0 -11 -7 -37 -16 -58 -14 -35
-16 -36 -29 -18 -8 10 -16 24 -19 30 -3 7 -8 7 -14 -3 -20 -28 -91 104 -76
142 4 12 18 17 44 17 54 0 150 38 150 60 0 9 -11 50 -25 91 l-25 74 23 -25
c12 -14 32 -38 44 -53 21 -27 23 -28 47 -12 14 10 23 22 19 28 -3 6 -1 7 6 3
14 -9 71 30 71 49 0 7 19 30 43 51 23 21 41 42 39 46 -1 5 8 12 20 17 13 5 39
25 57 45 19 20 41 36 48 36 8 0 13 6 12 13 0 6 2 22 6 35 11 35 28 10 20 -28z
m335 -44 c0 -13 -13 -36 -21 -36 -4 0 -6 6 -3 14 3 8 -2 16 -13 19 -12 3 -9 5
10 6 15 0 27 -1 27 -3z m-705 -127 c-22 -10 -47 -18 -55 -18 -8 0 5 8 30 19
59 24 76 24 25 -1z m-386 -263 c-2 -2 -13 8 -23 22 l-19 27 24 -22 c12 -12 21
-24 18 -27z m76 -56 c12 -19 -12 -10 -31 11 -19 22 -19 22 3 10 12 -6 25 -16
28 -21z m649 -92 l-29 -31 30 20 c48 31 134 46 189 32 26 -6 51 -20 57 -30 11
-21 9 -80 -3 -73 -5 3 -5 10 -2 16 4 7 2 8 -4 4 -7 -4 -27 4 -45 18 -34 26
-106 60 -113 53 -2 -2 19 -14 46 -27 79 -37 83 -46 49 -105 -16 -27 -29 -42
-29 -33 0 9 5 20 10 23 18 11 10 23 -12 17 -16 -4 -19 -2 -13 9 7 11 6 12 -6
3 -8 -6 -26 -14 -41 -18 l-27 -6 26 47 c21 40 21 44 4 23 -11 -14 -26 -37 -33
-52 -7 -15 -22 -31 -34 -36 -11 -6 -50 -36 -85 -69 -35 -32 -59 -51 -52 -43
18 24 81 150 74 150 -16 0 -105 -167 -91 -172 5 -2 -11 -28 -36 -58 -25 -30
-57 -68 -70 -85 l-25 -30 22 47 c12 26 26 45 30 42 7 -4 41 50 61 99 13 32 -2
17 -32 -30 -17 -26 -30 -43 -30 -37 0 5 -16 -16 -35 -46 -46 -71 -45 -55 0 20
19 32 41 75 49 96 7 22 25 66 40 99 23 54 24 57 5 35 -23 -27 -84 -144 -105
-200 -8 -23 -13 -28 -13 -15 -1 19 39 133 76 218 23 53 155 145 222 156 3 1
-8 -13 -25 -31z m346 -124 c17 -28 30 -55 30 -60 0 -5 -16 19 -36 54 -20 35
-38 61 -41 59 -2 -3 1 -16 7 -29 11 -22 11 -22 -9 2 -10 13 -21 38 -24 54 l-4
30 24 -30 c13 -16 37 -52 53 -80z m-819 63 c14 -28 14 -37 1 -82 -23 -78 -25
-83 -30 -52 -2 16 5 46 16 67 15 31 16 40 6 44 -8 3 -13 2 -13 -2 3 -18 -2
-24 -13 -14 -10 8 -12 -1 -9 -40 1 -27 -1 -54 -6 -59 -6 -6 -9 8 -9 33 0 24
-3 61 -8 83 -7 38 -7 39 10 20 12 -14 15 -15 11 -4 -5 15 9 39 23 39 3 0 12
-15 21 -33z m692 -47 c-7 -25 -23 -37 -23 -16 0 8 5 18 10 21 6 4 7 11 4 17
-4 6 -2 8 4 5 5 -4 8 -16 5 -27z m-823 -25 c0 -8 -2 -15 -4 -15 -2 0 -6 7 -10
15 -3 8 -1 15 4 15 6 0 10 -7 10 -15z m377 -22 c-8 -15 -22 -53 -32 -83 -10
-30 -24 -64 -31 -75 -8 -11 -14 -29 -15 -40 0 -11 -3 -15 -5 -8 -7 16 43 170
68 211 24 39 36 36 15 -5z m324 -6 c-5 -13 -12 -52 -16 -87 -6 -54 -12 -69
-35 -88 l-28 -22 36 110 c20 60 40 110 44 110 4 0 4 -10 -1 -23z m-1024 -19
c-3 -8 -6 -5 -6 6 -1 11 2 17 5 13 3 -3 4 -12 1 -19z m342 -60 c1 -21 -3 -38
-8 -38 -6 0 -9 28 -9 63 2 66 15 46 17 -25z m592 20 c-15 -35 -36 -81 -45
-103 -10 -23 -26 -46 -36 -53 -14 -9 -6 15 30 91 46 95 65 127 75 127 2 0 -9
-28 -24 -62z m-764 -10 c-3 -8 -6 -5 -6 6 -1 11 2 17 5 13 3 -3 4 -12 1 -19z
m427 -83 c-12 -48 -24 -68 -60 -101 -49 -47 -53 -40 -23 40 22 61 43 85 34 39
l-5 -28 12 25 c20 42 50 91 54 88 2 -2 -4 -31 -12 -63z m-317 -16 c-3 -22 -8
-43 -11 -46 -12 -13 -16 6 -10 46 9 54 28 54 21 0z m63 31 c0 -18 -30 -83 -36
-78 -8 9 15 88 26 88 6 0 10 -5 10 -10z m405 -106 l-15 -39 6 35 c7 38 14 54
20 47 2 -2 -3 -21 -11 -43z m-271 -21 c-11 -46 -24 -76 -30 -70 -6 6 25 97 33
97 2 0 0 -12 -3 -27z m89 -10 c-10 -63 -23 -84 -20 -33 3 41 12 70 22 70 2 0
1 -17 -2 -37z m118 -49 c-9 -25 -17 -38 -19 -30 -3 13 24 76 32 76 2 0 -4 -21
-13 -46z m-151 32 c0 -3 -4 -8 -10 -11 -5 -3 -10 -1 -10 4 0 6 5 11 10 11 6 0
10 -2 10 -4z m201 -73 c-12 -20 -14 -14 -5 12 4 9 9 14 11 11 3 -2 0 -13 -6
-23z"/>
<path d="M656 1467 c-16 -11 -15 -13 10 -12 15 1 30 7 32 13 5 16 -20 15 -42
-1z"/>
<path d="M995 915 c-27 -26 -33 -65 -11 -65 18 0 35 21 46 59 11 38 -2 40 -35
6z"/>
<path d="M921 863 c-24 -30 -22 -38 8 -28 14 4 21 15 21 31 0 30 -4 30 -29 -3z
m11 -15 c-7 -7 -12 -8 -12 -2 0 14 12 26 19 19 2 -3 -1 -11 -7 -17z"/>
<path d="M1194 568 l-19 -23 23 19 c12 11 22 21 22 23 0 8 -8 2 -26 -19z"/>
<path d="M1276 523 c-6 -14 -5 -15 5 -6 7 7 10 15 7 18 -3 3 -9 -2 -12 -12z"/>
<path d="M1214 463 c-14 -18 -21 -33 -16 -33 13 0 42 34 42 49 0 7 4 10 9 6 5
-3 12 -2 15 3 3 5 -1 9 -10 9 -8 0 -26 -15 -40 -34z"/>
<path d="M1123 2039 c11 -7 23 -7 35 0 14 9 11 10 -18 10 -29 0 -32 -1 -17
-10z"/>
<path d="M1580 1892 c0 -8 89 -363 141 -565 6 -21 13 -35 18 -33 4 3 13 -10
19 -28 13 -36 39 -49 66 -34 10 5 24 7 32 4 9 -3 27 3 41 14 17 13 41 20 69
20 53 0 54 3 18 108 -49 148 -137 286 -256 402 -68 65 -148 126 -148 112z"/>
<path d="M403 1818 c-33 -29 -84 -80 -113 -113 -57 -65 -142 -203 -134 -217 3
-4 1 -8 -4 -8 -10 0 -55 -118 -73 -194 -11 -44 -10 -50 6 -62 29 -22 118 -18
146 6 21 18 22 19 4 14 -20 -5 -20 -5 -1 10 18 15 18 16 -7 25 -35 14 -42 29
-9 23 15 -3 24 -1 20 3 -4 4 -1 13 7 19 9 7 12 19 9 34 -7 23 -19 29 -29 12
-3 -5 -11 -10 -17 -10 -6 0 -2 10 10 23 12 13 22 32 22 43 0 16 -2 17 -10 4
-9 -13 -10 -13 -10 0 0 22 29 60 54 70 18 8 16 9 -14 10 l-35 2 45 15 c25 8
51 16 59 17 8 1 15 15 17 30 1 14 13 43 25 64 21 33 21 36 4 23 -11 -8 -1 3
21 25 37 35 41 44 39 82 -2 28 2 42 10 42 7 0 15 7 19 15 5 13 2 14 -17 4 -21
-11 -21 -11 2 15 38 41 20 31 -46 -26z"/>
<path d="M502 1785 c-7 -14 -12 -48 -12 -74 0 -68 -11 -141 -21 -141 -5 0 -9
8 -10 18 -1 9 -6 1 -13 -19 -6 -20 -18 -44 -26 -54 -14 -17 -13 -17 7 -7 28
15 57 58 71 102 8 28 23 200 17 200 -1 0 -7 -11 -13 -25z"/>
<path d="M429 1483 l-24 -28 28 24 c25 23 32 31 24 31 -2 0 -14 -12 -28 -27z"/>
<path d="M379 1283 c-13 -16 -12 -17 4 -4 9 7 17 15 17 17 0 8 -8 3 -21 -13z"/>
<path d="M66 1197 c-18 -88 -11 -244 15 -362 l12 -53 46 29 c25 16 57 38 71
50 22 17 22 19 3 10 -12 -6 -33 -11 -47 -11 -26 0 -86 44 -85 63 0 8 2 8 6 -1
7 -18 62 -44 79 -38 8 3 14 20 14 41 0 26 -4 34 -12 30 -7 -4 -4 1 7 10 20 17
20 17 -4 10 -16 -5 -21 -4 -17 4 4 6 1 11 -7 11 -16 0 -47 31 -47 48 0 7 5 12
11 12 5 0 8 -4 4 -9 -3 -6 5 -15 17 -22 21 -11 22 -11 10 4 -8 9 -12 22 -10
29 3 7 -5 21 -16 30 -21 18 -21 18 7 8 34 -12 47 -13 46 -2 -3 16 2 31 14 44
6 8 18 24 24 36 11 19 11 20 -5 15 -9 -4 -28 -13 -42 -22 -19 -11 -22 -11 -12
-1 17 19 15 30 -5 30 -10 0 -30 7 -45 14 -26 14 -28 13 -32 -7z m114 -351 c0
-2 -7 -6 -15 -10 -8 -3 -15 -1 -15 4 0 6 7 10 15 10 8 0 15 -2 15 -4z"/>
<path d="M1840 1130 c-21 -7 -21 -8 -5 -9 11 0 27 4 35 9 18 11 5 11 -30 0z"/>
<path d="M171 1054 c0 -11 3 -14 6 -6 3 7 2 16 -1 19 -3 4 -6 -2 -5 -13z"/>
<path d="M114 776 c-10 -8 -17 -16 -14 -19 3 -2 14 4 24 14 23 22 18 25 -10 5z"/>
<path d="M170 770 c-8 -5 -10 -10 -5 -10 6 0 17 5 25 10 8 5 11 10 5 10 -5 0
-17 -5 -25 -10z"/>
<path d="M427 764 c-11 -11 -9 -19 14 -43 16 -16 24 -20 32 -12 8 8 4 18 -14
36 -14 14 -28 22 -32 19z"/>
<path d="M370 673 c0 -6 8 -17 18 -24 16 -13 16 -13 2 6 -8 11 -16 22 -17 24
-2 2 -3 0 -3 -6z"/>
<path d="M411 611 c-9 -6 -12 -18 -7 -37 l7 -27 22 21 c19 19 20 24 7 37 -10
9 -20 11 -29 6z"/>
<path d="M207 560 c-5 -21 0 -25 21 -11 10 6 10 10 -1 20 -12 9 -16 7 -20 -9z"/>
</g>
</svg>
